  0
SECTION
  2
HEADER
  9
$ACADVER
  1
AC1014
  9
$HANDSEED
  5
FFFF
  9
$MEASUREMENT
 70
     1
  0
ENDSEC
  0
SECTION
  2
TABLES
  0
TABLE
  2
VPORT
  5
8
330
0
100
AcDbSymbolTable
 70
     4
  0
VPORT
  5
2E
330
8
100
AcDbSymbolTableRecord
100
AcDbViewportTableRecord
  2
*ACTIVE
 70
     0
 10
0.0
 20
0.0
 11
1.0
 21
1.0
 12
210.0
 22
148.5
 13
0.0
 23
0.0
 14
10.0
 24
10.0
 15
10.0
 25
10.0
 16
0.0
 26
0.0
 36
1.0
 17
0.0
 27
0.0
 37
0.0
 40
341.0
 41
1.24
 42
50.0
 43
0.0
 44
0.0
 50
0.0
 51
0.0
 71
     0
 72
   100
 73
     1
 74
     3
 75
     0
 76
     0
 77
     0
 78
     0
  0
ENDTAB
  0
TABLE
  2
LTYPE
  5
5
330
0
100
AcDbSymbolTable
 70
     1
  0
LTYPE
  5
14
330
5
100
AcDbSymbolTableRecord
100
AcDbLinetypeTableRecord
  2
BYBLOCK
 70
     0
  3

 72
    65
 73
     0
 40
0.0
  0
LTYPE
  5
15
330
5
100
AcDbSymbolTableRecord
100
AcDbLinetypeTableRecord
  2
BYLAYER
 70
     0
  3

 72
    65
 73
     0
 40
0.0
  0
LTYPE
  5
16
330
5
100
AcDbSymbolTableRecord
100
AcDbLinetypeTableRecord
  2
CONTINUOUS
 70
     0
  3
Solid line
 72
    65
 73
     0
 40
0.0
  0
ENDTAB
  0
TABLE
  2
LAYER
  5
2
100
AcDbSymbolTable
 70
2
  0
LAYER
  5
50
100
AcDbSymbolTableRecord
100
AcDbLayerTableRecord
  2
0
 70
0
  6
CONTINUOUS
  0
LAYER
  5
51
100
AcDbSymbolTableRecord
100
AcDbLayerTableRecord
  2
FORMAT
 70
0
  6
CONTINUOUS
  0
ENDTAB
  0
TABLE
  2
STYLE
  5
3
330
0
100
AcDbSymbolTable
 70
     1
  0
STYLE
  5
11
330
3
100
AcDbSymbolTableRecord
100
AcDbTextStyleTableRecord
  2
STANDARD
 70
     0
 40
0.0
 41
1.0
 50
0.0
 71
     0
 42
2.5
  3
txt
  4

  0
ENDTAB
  0
TABLE
  2
VIEW
  5
6
330
0
100
AcDbSymbolTable
 70
     0
  0
ENDTAB
  0
TABLE
  2
UCS
  5
7
330
0
100
AcDbSymbolTable
 70
     0
  0
ENDTAB
  0
TABLE
  2
APPID
  5
9
330
0
100
AcDbSymbolTable
 70
     2
  0
APPID
  5
12
330
9
100
AcDbSymbolTableRecord
100
AcDbRegAppTableRecord
  2
ACAD
 70
     0
  0
ENDTAB
  0
TABLE
  2
DIMSTYLE
  5
A
330
0
100
AcDbSymbolTable
 70
     1
  0
DIMSTYLE
105
27
330
A
100
AcDbSymbolTableRecord
100
AcDbDimStyleTableRecord
  2
ISO-25
 70
     0
  3

  4

  5

  6

  7

 40
1.0
 41
2.5
 42
0.625
 43
3.75
 44
1.25
 45
0.0
 46
0.0
 47
0.0
 48
0.0
140
2.5
141
2.5
142
0.0
143
0.03937007874016
144
1.0
145
0.0
146
1.0
147
0.625
 71
     0
 72
     0
 73
     0
 74
     0
 75
     0
 76
     0
 77
     1
 78
     8
170
     0
171
     3
172
     1
173
     0
174
     0
175
     0
176
     0
177
     0
178
     0
270
     2
271
     2
272
     2
273
     2
274
     3
340
11
275
     0
280
     0
281
     0
282
     0
283
     0
284
     8
285
     0
286
     0
287
     3
288
     0
  0
ENDTAB
  0
TABLE
  2
BLOCK_RECORD
  5
1
330
0
100
AcDbSymbolTable
 70
     1
  0
BLOCK_RECORD
  5
1F
330
1
100
AcDbSymbolTableRecord
100
AcDbBlockTableRecord
  2
*MODEL_SPACE
  0
BLOCK_RECORD
  5
1B
330
1
100
AcDbSymbolTableRecord
100
AcDbBlockTableRecord
  2
*PAPER_SPACE
  0
ENDTAB
  0
ENDSEC
  0
SECTION
  2
BLOCKS
  0
BLOCK
  5
20
330
1F
100
AcDbEntity
  8
0
100
AcDbBlockBegin
  2
*MODEL_SPACE
 70
     0
 10
0.0
 20
0.0
 30
0.0
  3
*MODEL_SPACE
  1

  0
ENDBLK
  5
21
330
1F
100
AcDbEntity
  8
0
100
AcDbBlockEnd
  0
BLOCK
  5
1C
330
1B
100
AcDbEntity
 67
     1
  8
0
100
AcDbBlockBegin
  2
*PAPER_SPACE
  1

  0
ENDBLK
  5
1D
330
1B
100
AcDbEntity
 67
     1
  8
0
100
AcDbBlockEnd
  0
ENDSEC
  0
SECTION
  2
ENTITIES
  0
LINE
  5
100
100
AcDbEntity
  8
0
 62
7
100
AcDbLine
 10
244.509927
 20
69.323134
 30
0.0
 11
244.509927
 21
66.523131
 31
0.0
  0
LINE
  5
101
100
AcDbEntity
  8
0
 62
7
100
AcDbLine
 10
244.509927
 20
69.323134
 30
0.0
 11
199.843257
 21
69.323134
 31
0.0
  0
LINE
  5
102
100
AcDbEntity
  8
0
 62
7
100
AcDbLine
 10
199.843257
 20
69.323134
 30
0.0
 11
199.843257
 21
66.523131
 31
0.0
  0
LINE
  5
103
100
AcDbEntity
  8
0
 62
7
100
AcDbLine
 10
199.843257
 20
66.523131
 30
0.0
 11
189.843257
 21
66.523131
 31
0.0
  0
LINE
  5
104
100
AcDbEntity
  8
0
 62
7
100
AcDbLine
 10
189.843257
 20
69.323134
 30
0.0
 11
189.843257
 21
66.523131
 31
0.0
  0
LINE
  5
105
100
AcDbEntity
  8
0
 62
7
100
AcDbLine
 10
189.843257
 20
69.323134
 30
0.0
 11
145.176590
 21
69.323134
 31
0.0
  0
LINE
  5
106
100
AcDbEntity
  8
0
 62
7
100
AcDbLine
 10
145.176590
 20
69.323134
 30
0.0
 11
145.176590
 21
66.523131
 31
0.0
  0
LINE
  5
107
100
AcDbEntity
  8
0
 62
7
100
AcDbLine
 10
145.176590
 20
66.523131
 30
0.0
 11
135.176590
 21
66.523131
 31
0.0
  0
LINE
  5
108
100
AcDbEntity
  8
0
 62
7
100
AcDbLine
 10
135.176590
 20
69.323134
 30
0.0
 11
135.176590
 21
66.523131
 31
0.0
  0
LINE
  5
109
100
AcDbEntity
  8
0
 62
7
100
AcDbLine
 10
135.176590
 20
69.323134
 30
0.0
 11
90.509928
 21
69.323134
 31
0.0
  0
LINE
  5
10a
100
AcDbEntity
  8
0
 62
7
100
AcDbLine
 10
90.509928
 20
69.323134
 30
0.0
 11
90.509928
 21
66.523131
 31
0.0
  0
LINE
  5
10b
100
AcDbEntity
  8
0
 62
7
100
AcDbLine
 10
90.509928
 20
66.523131
 30
0.0
 11
80.509922
 21
66.523131
 31
0.0
  0
LINE
  5
10c
100
AcDbEntity
  8
0
 62
7
100
AcDbLine
 10
80.509922
 20
69.323134
 30
0.0
 11
80.509922
 21
66.523131
 31
0.0
  0
LINE
  5
10d
100
AcDbEntity
  8
0
 62
7
100
AcDbLine
 10
80.509922
 20
69.323134
 30
0.0
 11
91.509922
 21
109.323126
 31
0.0
  0
LINE
  5
10e
100
AcDbEntity
  8
0
 62
7
100
AcDbLine
 10
91.509922
 20
109.323126
 30
0.0
 11
96.509925
 21
109.323126
 31
0.0
  0
LINE
  5
10f
100
AcDbEntity
  8
0
 62
7
100
AcDbLine
 10
96.509925
 20
89.323130
 30
0.0
 11
96.509925
 21
109.323126
 31
0.0
  0
LINE
  5
110
100
AcDbEntity
  8
0
 62
7
100
AcDbLine
 10
96.509925
 20
89.323130
 30
0.0
 11
99.509923
 21
89.323130
 31
0.0
  0
LINE
  5
111
100
AcDbEntity
  8
0
 62
7
100
AcDbLine
 10
99.509923
 20
89.323130
 30
0.0
 11
99.509923
 21
109.323126
 31
0.0
  0
LINE
  5
112
100
AcDbEntity
  8
0
 62
7
100
AcDbLine
 10
99.509923
 20
109.323126
 30
0.0
 11
235.509924
 21
109.323126
 31
0.0
  0
LINE
  5
113
100
AcDbEntity
  8
0
 62
7
100
AcDbLine
 10
235.509924
 20
89.323130
 30
0.0
 11
235.509924
 21
109.323126
 31
0.0
  0
LINE
  5
114
100
AcDbEntity
  8
0
 62
7
100
AcDbLine
 10
235.509924
 20
89.323130
 30
0.0
 11
238.509922
 21
89.323130
 31
0.0
  0
LINE
  5
115
100
AcDbEntity
  8
0
 62
7
100
AcDbLine
 10
238.509922
 20
89.323130
 30
0.0
 11
238.509922
 21
109.323126
 31
0.0
  0
LINE
  5
116
100
AcDbEntity
  8
0
 62
7
100
AcDbLine
 10
238.509922
 20
109.323126
 30
0.0
 11
243.509925
 21
109.323126
 31
0.0
  0
LINE
  5
117
100
AcDbEntity
  8
0
 62
7
100
AcDbLine
 10
243.509925
 20
109.323126
 30
0.0
 11
254.509925
 21
69.323134
 31
0.0
  0
LINE
  5
118
100
AcDbEntity
  8
0
 62
7
100
AcDbLine
 10
254.509925
 20
69.323134
 30
0.0
 11
254.509925
 21
66.523131
 31
0.0
  0
LINE
  5
119
100
AcDbEntity
  8
0
 62
7
100
AcDbLine
 10
254.509925
 20
66.523131
 30
0.0
 11
244.509927
 21
66.523131
 31
0.0
  0
LINE
  5
11a
100
AcDbEntity
  8
0
 62
7
100
AcDbLine
 10
90.509928
 20
186.323132
 30
0.0
 11
90.509928
 21
189.123128
 31
0.0
  0
LINE
  5
11b
100
AcDbEntity
  8
0
 62
7
100
AcDbLine
 10
135.176590
 20
186.323132
 30
0.0
 11
90.509928
 21
186.323132
 31
0.0
  0
LINE
  5
11c
100
AcDbEntity
  8
0
 62
7
100
AcDbLine
 10
135.176590
 20
189.123128
 30
0.0
 11
145.176590
 21
189.123128
 31
0.0
  0
LINE
  5
11d
100
AcDbEntity
  8
0
 62
7
100
AcDbLine
 10
189.843257
 20
186.323132
 30
0.0
 11
189.843257
 21
189.123128
 31
0.0
  0
LINE
  5
11e
100
AcDbEntity
  8
0
 62
7
100
AcDbLine
 10
189.843257
 20
189.123128
 30
0.0
 11
199.843257
 21
189.123128
 31
0.0
  0
LINE
  5
11f
100
AcDbEntity
  8
0
 62
7
100
AcDbLine
 10
199.843257
 20
186.323132
 30
0.0
 11
199.843257
 21
189.123128
 31
0.0
  0
LINE
  5
120
100
AcDbEntity
  8
0
 62
7
100
AcDbLine
 10
244.509927
 20
186.323132
 30
0.0
 11
199.843257
 21
186.323132
 31
0.0
  0
LINE
  5
121
100
AcDbEntity
  8
0
 62
7
100
AcDbLine
 10
244.509927
 20
186.323132
 30
0.0
 11
244.509927
 21
189.123128
 31
0.0
  0
LINE
  5
122
100
AcDbEntity
  8
0
 62
7
100
AcDbLine
 10
244.509927
 20
189.123128
 30
0.0
 11
254.509925
 21
189.123128
 31
0.0
  0
LINE
  5
123
100
AcDbEntity
  8
0
 62
7
100
AcDbLine
 10
254.509925
 20
186.323132
 30
0.0
 11
254.509925
 21
189.123128
 31
0.0
  0
LINE
  5
124
100
AcDbEntity
  8
0
 62
7
100
AcDbLine
 10
254.509925
 20
186.323132
 30
0.0
 11
243.509925
 21
146.323126
 31
0.0
  0
LINE
  5
125
100
AcDbEntity
  8
0
 62
7
100
AcDbLine
 10
238.509922
 20
146.323126
 30
0.0
 11
243.509925
 21
146.323126
 31
0.0
  0
LINE
  5
126
100
AcDbEntity
  8
0
 62
7
100
AcDbLine
 10
238.509922
 20
166.323137
 30
0.0
 11
238.509922
 21
146.323126
 31
0.0
  0
LINE
  5
127
100
AcDbEntity
  8
0
 62
7
100
AcDbLine
 10
238.509922
 20
166.323137
 30
0.0
 11
235.509924
 21
166.323137
 31
0.0
  0
LINE
  5
128
100
AcDbEntity
  8
0
 62
7
100
AcDbLine
 10
235.509924
 20
166.323137
 30
0.0
 11
235.509924
 21
146.323126
 31
0.0
  0
LINE
  5
129
100
AcDbEntity
  8
0
 62
7
100
AcDbLine
 10
99.509923
 20
146.323126
 30
0.0
 11
235.509924
 21
146.323126
 31
0.0
  0
LINE
  5
12a
100
AcDbEntity
  8
0
 62
7
100
AcDbLine
 10
99.509923
 20
166.323137
 30
0.0
 11
99.509923
 21
146.323126
 31
0.0
  0
LINE
  5
12b
100
AcDbEntity
  8
0
 62
7
100
AcDbLine
 10
99.509923
 20
166.323137
 30
0.0
 11
96.509925
 21
166.323137
 31
0.0
  0
LINE
  5
12c
100
AcDbEntity
  8
0
 62
7
100
AcDbLine
 10
96.509925
 20
166.323137
 30
0.0
 11
96.509925
 21
146.323126
 31
0.0
  0
LINE
  5
12d
100
AcDbEntity
  8
0
 62
7
100
AcDbLine
 10
91.509922
 20
146.323126
 30
0.0
 11
96.509925
 21
146.323126
 31
0.0
  0
LINE
  5
12e
100
AcDbEntity
  8
0
 62
7
100
AcDbLine
 10
91.509922
 20
146.323126
 30
0.0
 11
80.509922
 21
186.323132
 31
0.0
  0
LINE
  5
12f
100
AcDbEntity
  8
0
 62
7
100
AcDbLine
 10
80.509922
 20
186.323132
 30
0.0
 11
80.509922
 21
189.123128
 31
0.0
  0
LINE
  5
130
100
AcDbEntity
  8
0
 62
7
100
AcDbLine
 10
80.509922
 20
189.123128
 30
0.0
 11
90.509928
 21
189.123128
 31
0.0
  0
LINE
  5
131
100
AcDbEntity
  8
0
 62
7
100
AcDbLine
 10
135.176590
 20
186.323132
 30
0.0
 11
135.176590
 21
189.123128
 31
0.0
  0
LINE
  5
132
100
AcDbEntity
  8
0
 62
7
100
AcDbLine
 10
145.176590
 20
186.323132
 30
0.0
 11
145.176590
 21
189.123128
 31
0.0
  0
LINE
  5
133
100
AcDbEntity
  8
0
 62
7
100
AcDbLine
 10
189.843257
 20
186.323132
 30
0.0
 11
145.176590
 21
186.323132
 31
0.0
  0
LINE
  5
134
100
AcDbEntity
  8
0
 62
7
100
AcDbLine
 10
407.159961
 20
186.323132
 30
0.0
 11
429.959959
 21
186.323132
 31
0.0
  0
LINE
  5
135
100
AcDbEntity
  8
0
 62
7
100
AcDbLine
 10
407.159961
 20
183.323126
 30
0.0
 11
407.159961
 21
186.323132
 31
0.0
  0
LINE
  5
136
100
AcDbEntity
  8
0
 62
7
100
AcDbLine
 10
407.159961
 20
183.323126
 30
0.0
 11
427.159971
 21
183.323126
 31
0.0
  0
LINE
  5
137
100
AcDbEntity
  8
0
 62
7
100
AcDbLine
 10
427.159971
 20
183.323126
 30
0.0
 11
427.159971
 21
147.823136
 31
0.0
  0
LINE
  5
138
100
AcDbEntity
  8
0
 62
7
100
AcDbLine
 10
427.159971
 20
147.823136
 30
0.0
 11
429.959959
 21
147.823136
 31
0.0
  0
LINE
  5
139
100
AcDbEntity
  8
0
 62
7
100
AcDbLine
 10
429.959959
 20
147.823136
 30
0.0
 11
429.959959
 21
107.823130
 31
0.0
  0
LINE
  5
13a
100
AcDbEntity
  8
0
 62
7
100
AcDbLine
 10
427.159971
 20
107.823130
 30
0.0
 11
429.959959
 21
107.823130
 31
0.0
  0
LINE
  5
13b
100
AcDbEntity
  8
0
 62
7
100
AcDbLine
 10
427.159971
 20
107.823130
 30
0.0
 11
427.159971
 21
72.323125
 31
0.0
  0
LINE
  5
13c
100
AcDbEntity
  8
0
 62
7
100
AcDbLine
 10
407.159961
 20
72.323125
 30
0.0
 11
427.159971
 21
72.323125
 31
0.0
  0
LINE
  5
13d
100
AcDbEntity
  8
0
 62
7
100
AcDbLine
 10
407.159961
 20
69.323134
 30
0.0
 11
407.159961
 21
72.323125
 31
0.0
  0
LINE
  5
13e
100
AcDbEntity
  8
0
 62
7
100
AcDbLine
 10
429.959959
 20
69.323134
 30
0.0
 11
429.959959
 21
59.323129
 31
0.0
  0
LINE
  5
13f
100
AcDbEntity
  8
0
 62
7
100
AcDbLine
 10
427.159971
 20
59.323129
 30
0.0
 11
429.959959
 21
59.323129
 31
0.0
  0
LINE
  5
140
100
AcDbEntity
  8
0
 62
7
100
AcDbLine
 10
427.159971
 20
59.323129
 30
0.0
 11
387.159965
 21
64.323124
 31
0.0
  0
LINE
  5
141
100
AcDbEntity
  8
0
 62
7
100
AcDbLine
 10
387.159965
 20
64.323124
 30
0.0
 11
387.159965
 21
191.323128
 31
0.0
  0
LINE
  5
142
100
AcDbEntity
  8
0
 62
7
100
AcDbLine
 10
387.159965
 20
191.323128
 30
0.0
 11
427.159971
 21
196.323131
 31
0.0
  0
LINE
  5
143
100
AcDbEntity
  8
0
 62
7
100
AcDbLine
 10
427.159971
 20
196.323131
 30
0.0
 11
429.959959
 21
196.323131
 31
0.0
  0
LINE
  5
144
100
AcDbEntity
  8
0
 62
7
100
AcDbLine
 10
429.959959
 20
196.323131
 30
0.0
 11
429.959959
 21
186.323132
 31
0.0
  0
LINE
  5
145
100
AcDbEntity
  8
0
 62
7
100
AcDbLine
 10
407.159961
 20
69.323134
 30
0.0
 11
429.959959
 21
69.323134
 31
0.0
  0
LINE
  5
146
100
AcDbEntity
  8
0
 62
7
100
AcDbLine
 10
305.159963
 20
69.323134
 30
0.0
 11
282.359964
 21
69.323134
 31
0.0
  0
LINE
  5
147
100
AcDbEntity
  8
0
 62
7
100
AcDbLine
 10
305.159963
 20
72.323125
 30
0.0
 11
305.159963
 21
69.323134
 31
0.0
  0
LINE
  5
148
100
AcDbEntity
  8
0
 62
7
100
AcDbLine
 10
305.159963
 20
72.323125
 30
0.0
 11
285.159967
 21
72.323125
 31
0.0
  0
LINE
  5
149
100
AcDbEntity
  8
0
 62
7
100
AcDbLine
 10
285.159967
 20
72.323125
 30
0.0
 11
285.159967
 21
107.823130
 31
0.0
  0
LINE
  5
14a
100
AcDbEntity
  8
0
 62
7
100
AcDbLine
 10
282.359964
 20
107.823130
 30
0.0
 11
282.359964
 21
147.823136
 31
0.0
  0
LINE
  5
14b
100
AcDbEntity
  8
0
 62
7
100
AcDbLine
 10
285.159967
 20
147.823136
 30
0.0
 11
285.159967
 21
183.323126
 31
0.0
  0
LINE
  5
14c
100
AcDbEntity
  8
0
 62
7
100
AcDbLine
 10
305.159963
 20
183.323126
 30
0.0
 11
285.159967
 21
183.323126
 31
0.0
  0
LINE
  5
14d
100
AcDbEntity
  8
0
 62
7
100
AcDbLine
 10
305.159963
 20
186.323132
 30
0.0
 11
305.159963
 21
183.323126
 31
0.0
  0
LINE
  5
14e
100
AcDbEntity
  8
0
 62
7
100
AcDbLine
 10
305.159963
 20
186.323132
 30
0.0
 11
282.359964
 21
186.323132
 31
0.0
  0
LINE
  5
14f
100
AcDbEntity
  8
0
 62
7
100
AcDbLine
 10
282.359964
 20
186.323132
 30
0.0
 11
282.359964
 21
196.323131
 31
0.0
  0
LINE
  5
150
100
AcDbEntity
  8
0
 62
7
100
AcDbLine
 10
285.159967
 20
196.323131
 30
0.0
 11
282.359964
 21
196.323131
 31
0.0
  0
LINE
  5
151
100
AcDbEntity
  8
0
 62
7
100
AcDbLine
 10
285.159967
 20
196.323131
 30
0.0
 11
325.159973
 21
191.323128
 31
0.0
  0
LINE
  5
152
100
AcDbEntity
  8
0
 62
7
100
AcDbLine
 10
325.159973
 20
191.323128
 30
0.0
 11
325.159973
 21
64.323124
 31
0.0
  0
LINE
  5
153
100
AcDbEntity
  8
0
 62
7
100
AcDbLine
 10
325.159973
 20
64.323124
 30
0.0
 11
285.159967
 21
59.323129
 31
0.0
  0
LINE
  5
154
100
AcDbEntity
  8
0
 62
7
100
AcDbLine
 10
285.159967
 20
59.323129
 30
0.0
 11
282.359964
 21
59.323129
 31
0.0
  0
LINE
  5
155
100
AcDbEntity
  8
0
 62
7
100
AcDbLine
 10
282.359964
 20
59.323129
 30
0.0
 11
282.359964
 21
69.323134
 31
0.0
  0
LINE
  5
156
100
AcDbEntity
  8
0
 62
7
100
AcDbLine
 10
285.159967
 20
107.823130
 30
0.0
 11
282.359964
 21
107.823130
 31
0.0
  0
LINE
  5
157
100
AcDbEntity
  8
0
 62
7
100
AcDbLine
 10
285.159967
 20
147.823136
 30
0.0
 11
282.359964
 21
147.823136
 31
0.0
  0
LINE
  5
158
100
AcDbEntity
  8
0
 62
7
100
AcDbLine
 10
424.159980
 20
332.334057
 30
0.0
 11
424.159980
 21
367.834058
 31
0.0
  0
LINE
  5
159
100
AcDbEntity
  8
0
 62
7
100
AcDbLine
 10
378.493300
 20
367.834058
 30
0.0
 11
333.826638
 21
367.834058
 31
0.0
  0
LINE
  5
15a
100
AcDbEntity
  8
0
 62
7
100
AcDbLine
 10
288.159973
 20
292.334058
 30
0.0
 11
288.159973
 21
256.834056
 31
0.0
  0
LINE
  5
15b
100
AcDbEntity
  8
0
 62
7
100
AcDbLine
 10
333.826638
 20
256.834056
 30
0.0
 11
378.493300
 21
256.834056
 31
0.0
  0
LINE
  5
15c
100
AcDbEntity
  8
0
 62
7
100
AcDbLine
 10
424.159980
 20
256.834056
 30
0.0
 11
424.159980
 21
292.334058
 31
0.0
  0
LINE
  5
15d
100
AcDbEntity
  8
0
 62
7
100
AcDbLine
 10
424.159980
 20
367.834058
 30
0.0
 11
388.493306
 21
367.834058
 31
0.0
  0
LINE
  5
15e
100
AcDbEntity
  8
0
 62
7
100
AcDbLine
 10
323.826632
 20
367.834058
 30
0.0
 11
288.159973
 21
367.834058
 31
0.0
  0
LINE
  5
15f
100
AcDbEntity
  8
0
 62
7
100
AcDbLine
 10
288.159973
 20
367.834058
 30
0.0
 11
288.159973
 21
332.334057
 31
0.0
  0
LINE
  5
160
100
AcDbEntity
  8
0
 62
7
100
AcDbLine
 10
288.159973
 20
256.834056
 30
0.0
 11
323.826632
 21
256.834056
 31
0.0
  0
SPLINE
  5
161
100
AcDbEntity
  8
0
 62
7
100
AcDbSpline
 70
8
 71
3
 72
8
 73
4
 74
0
 40
0
 40
0
 40
0
 40
0
 40
1
 40
1
 40
1
 40
1
 10
380.159967
 20
387.334057
 30
0.0
 10
380.160200
 20
387.870111
 30
0.0
 10
379.874352
 20
388.365544
 30
0.0
 10
379.410155
 20
388.633638
 30
0.0
  0
SPLINE
  5
162
100
AcDbEntity
  8
0
 62
7
100
AcDbSpline
 70
8
 71
3
 72
8
 73
4
 74
0
 40
0
 40
0
 40
0
 40
0
 40
1
 40
1
 40
1
 40
1
 10
379.410155
 20
388.633638
 30
0.0
 10
378.945958
 20
388.901731
 30
0.0
 10
378.373977
 20
388.901731
 30
0.0
 10
377.909779
 20
388.633638
 30
0.0
  0
SPLINE
  5
163
100
AcDbEntity
  8
0
 62
7
100
AcDbSpline
 70
8
 71
3
 72
8
 73
4
 74
0
 40
0
 40
0
 40
0
 40
0
 40
1
 40
1
 40
1
 40
1
 10
377.909779
 20
388.633638
 30
0.0
 10
377.445582
 20
388.365544
 30
0.0
 10
377.159735
 20
387.870111
 30
0.0
 10
377.159967
 20
387.334057
 30
0.0
  0
SPLINE
  5
164
100
AcDbEntity
  8
0
 62
7
100
AcDbSpline
 70
8
 71
3
 72
8
 73
4
 74
0
 40
0
 40
0
 40
0
 40
0
 40
1
 40
1
 40
1
 40
1
 10
377.159967
 20
387.334057
 30
0.0
 10
377.159735
 20
386.798004
 30
0.0
 10
377.445582
 20
386.302571
 30
0.0
 10
377.909779
 20
386.034477
 30
0.0
  0
SPLINE
  5
165
100
AcDbEntity
  8
0
 62
7
100
AcDbSpline
 70
8
 71
3
 72
8
 73
4
 74
0
 40
0
 40
0
 40
0
 40
0
 40
1
 40
1
 40
1
 40
1
 10
377.909779
 20
386.034477
 30
0.0
 10
378.373977
 20
385.766383
 30
0.0
 10
378.945958
 20
385.766383
 30
0.0
 10
379.410155
 20
386.034477
 30
0.0
  0
SPLINE
  5
166
100
AcDbEntity
  8
0
 62
7
100
AcDbSpline
 70
8
 71
3
 72
8
 73
4
 74
0
 40
0
 40
0
 40
0
 40
0
 40
1
 40
1
 40
1
 40
1
 10
379.410155
 20
386.034477
 30
0.0
 10
379.874352
 20
386.302571
 30
0.0
 10
380.160200
 20
386.798004
 30
0.0
 10
380.159967
 20
387.334057
 30
0.0
  0
LINE
  5
167
100
AcDbEntity
  8
0
 62
7
100
AcDbLine
 10
380.159967
 20
387.334057
 30
0.0
 11
380.159967
 21
387.334057
 31
0.0
  0
SPLINE
  5
168
100
AcDbEntity
  8
0
 62
7
100
AcDbSpline
 70
8
 71
3
 72
8
 73
4
 74
0
 40
0
 40
0
 40
0
 40
0
 40
1
 40
1
 40
1
 40
1
 10
335.159967
 20
387.334057
 30
0.0
 10
335.160200
 20
387.870111
 30
0.0
 10
334.874352
 20
388.365544
 30
0.0
 10
334.410155
 20
388.633638
 30
0.0
  0
SPLINE
  5
169
100
AcDbEntity
  8
0
 62
7
100
AcDbSpline
 70
8
 71
3
 72
8
 73
4
 74
0
 40
0
 40
0
 40
0
 40
0
 40
1
 40
1
 40
1
 40
1
 10
334.410155
 20
388.633638
 30
0.0
 10
333.945958
 20
388.901731
 30
0.0
 10
333.373976
 20
388.901731
 30
0.0
 10
332.909779
 20
388.633638
 30
0.0
  0
SPLINE
  5
16a
100
AcDbEntity
  8
0
 62
7
100
AcDbSpline
 70
8
 71
3
 72
8
 73
4
 74
0
 40
0
 40
0
 40
0
 40
0
 40
1
 40
1
 40
1
 40
1
 10
332.909779
 20
388.633638
 30
0.0
 10
332.445582
 20
388.365544
 30
0.0
 10
332.159735
 20
387.870111
 30
0.0
 10
332.159967
 20
387.334057
 30
0.0
  0
SPLINE
  5
16b
100
AcDbEntity
  8
0
 62
7
100
AcDbSpline
 70
8
 71
3
 72
8
 73
4
 74
0
 40
0
 40
0
 40
0
 40
0
 40
1
 40
1
 40
1
 40
1
 10
332.159967
 20
387.334057
 30
0.0
 10
332.159735
 20
386.798004
 30
0.0
 10
332.445582
 20
386.302571
 30
0.0
 10
332.909779
 20
386.034477
 30
0.0
  0
SPLINE
  5
16c
100
AcDbEntity
  8
0
 62
7
100
AcDbSpline
 70
8
 71
3
 72
8
 73
4
 74
0
 40
0
 40
0
 40
0
 40
0
 40
1
 40
1
 40
1
 40
1
 10
332.909779
 20
386.034477
 30
0.0
 10
333.373976
 20
385.766383
 30
0.0
 10
333.945958
 20
385.766383
 30
0.0
 10
334.410155
 20
386.034477
 30
0.0
  0
SPLINE
  5
16d
100
AcDbEntity
  8
0
 62
7
100
AcDbSpline
 70
8
 71
3
 72
8
 73
4
 74
0
 40
0
 40
0
 40
0
 40
0
 40
1
 40
1
 40
1
 40
1
 10
334.410155
 20
386.034477
 30
0.0
 10
334.874352
 20
386.302571
 30
0.0
 10
335.160200
 20
386.798004
 30
0.0
 10
335.159967
 20
387.334057
 30
0.0
  0
LINE
  5
16e
100
AcDbEntity
  8
0
 62
7
100
AcDbLine
 10
335.159967
 20
387.334057
 30
0.0
 11
335.159967
 21
387.334057
 31
0.0
  0
SPLINE
  5
16f
100
AcDbEntity
  8
0
 62
7
100
AcDbSpline
 70
8
 71
3
 72
8
 73
4
 74
0
 40
0
 40
0
 40
0
 40
0
 40
1
 40
1
 40
1
 40
1
 10
290.159967
 20
387.334057
 30
0.0
 10
290.160200
 20
387.870111
 30
0.0
 10
289.874352
 20
388.365544
 30
0.0
 10
289.410155
 20
388.633638
 30
0.0
  0
SPLINE
  5
170
100
AcDbEntity
  8
0
 62
7
100
AcDbSpline
 70
8
 71
3
 72
8
 73
4
 74
0
 40
0
 40
0
 40
0
 40
0
 40
1
 40
1
 40
1
 40
1
 10
289.410155
 20
388.633638
 30
0.0
 10
288.945958
 20
388.901731
 30
0.0
 10
288.373976
 20
388.901731
 30
0.0
 10
287.909779
 20
388.633638
 30
0.0
  0
SPLINE
  5
171
100
AcDbEntity
  8
0
 62
7
100
AcDbSpline
 70
8
 71
3
 72
8
 73
4
 74
0
 40
0
 40
0
 40
0
 40
0
 40
1
 40
1
 40
1
 40
1
 10
287.909779
 20
388.633638
 30
0.0
 10
287.445582
 20
388.365544
 30
0.0
 10
287.159735
 20
387.870111
 30
0.0
 10
287.159967
 20
387.334057
 30
0.0
  0
SPLINE
  5
172
100
AcDbEntity
  8
0
 62
7
100
AcDbSpline
 70
8
 71
3
 72
8
 73
4
 74
0
 40
0
 40
0
 40
0
 40
0
 40
1
 40
1
 40
1
 40
1
 10
287.159967
 20
387.334057
 30
0.0
 10
287.159735
 20
386.798004
 30
0.0
 10
287.445582
 20
386.302571
 30
0.0
 10
287.909779
 20
386.034477
 30
0.0
  0
SPLINE
  5
173
100
AcDbEntity
  8
0
 62
7
100
AcDbSpline
 70
8
 71
3
 72
8
 73
4
 74
0
 40
0
 40
0
 40
0
 40
0
 40
1
 40
1
 40
1
 40
1
 10
287.909779
 20
386.034477
 30
0.0
 10
288.373976
 20
385.766383
 30
0.0
 10
288.945958
 20
385.766383
 30
0.0
 10
289.410155
 20
386.034477
 30
0.0
  0
SPLINE
  5
174
100
AcDbEntity
  8
0
 62
7
100
AcDbSpline
 70
8
 71
3
 72
8
 73
4
 74
0
 40
0
 40
0
 40
0
 40
0
 40
1
 40
1
 40
1
 40
1
 10
289.410155
 20
386.034477
 30
0.0
 10
289.874352
 20
386.302571
 30
0.0
 10
290.160200
 20
386.798004
 30
0.0
 10
290.159967
 20
387.334057
 30
0.0
  0
LINE
  5
175
100
AcDbEntity
  8
0
 62
7
100
AcDbLine
 10
290.159967
 20
387.334057
 30
0.0
 11
290.159967
 21
387.334057
 31
0.0
  0
SPLINE
  5
176
100
AcDbEntity
  8
0
 62
7
100
AcDbSpline
 70
8
 71
3
 72
8
 73
4
 74
0
 40
0
 40
0
 40
0
 40
0
 40
1
 40
1
 40
1
 40
1
 10
425.159967
 20
387.334057
 30
0.0
 10
425.160200
 20
387.870111
 30
0.0
 10
424.874352
 20
388.365544
 30
0.0
 10
424.410155
 20
388.633638
 30
0.0
  0
SPLINE
  5
177
100
AcDbEntity
  8
0
 62
7
100
AcDbSpline
 70
8
 71
3
 72
8
 73
4
 74
0
 40
0
 40
0
 40
0
 40
0
 40
1
 40
1
 40
1
 40
1
 10
424.410155
 20
388.633638
 30
0.0
 10
423.945958
 20
388.901731
 30
0.0
 10
423.373977
 20
388.901731
 30
0.0
 10
422.909779
 20
388.633638
 30
0.0
  0
SPLINE
  5
178
100
AcDbEntity
  8
0
 62
7
100
AcDbSpline
 70
8
 71
3
 72
8
 73
4
 74
0
 40
0
 40
0
 40
0
 40
0
 40
1
 40
1
 40
1
 40
1
 10
422.909779
 20
388.633638
 30
0.0
 10
422.445582
 20
388.365544
 30
0.0
 10
422.159735
 20
387.870111
 30
0.0
 10
422.159967
 20
387.334057
 30
0.0
  0
SPLINE
  5
179
100
AcDbEntity
  8
0
 62
7
100
AcDbSpline
 70
8
 71
3
 72
8
 73
4
 74
0
 40
0
 40
0
 40
0
 40
0
 40
1
 40
1
 40
1
 40
1
 10
422.159967
 20
387.334057
 30
0.0
 10
422.159735
 20
386.798004
 30
0.0
 10
422.445582
 20
386.302571
 30
0.0
 10
422.909779
 20
386.034477
 30
0.0
  0
SPLINE
  5
17a
100
AcDbEntity
  8
0
 62
7
100
AcDbSpline
 70
8
 71
3
 72
8
 73
4
 74
0
 40
0
 40
0
 40
0
 40
0
 40
1
 40
1
 40
1
 40
1
 10
422.909779
 20
386.034477
 30
0.0
 10
423.373977
 20
385.766383
 30
0.0
 10
423.945958
 20
385.766383
 30
0.0
 10
424.410155
 20
386.034477
 30
0.0
  0
SPLINE
  5
17b
100
AcDbEntity
  8
0
 62
7
100
AcDbSpline
 70
8
 71
3
 72
8
 73
4
 74
0
 40
0
 40
0
 40
0
 40
0
 40
1
 40
1
 40
1
 40
1
 10
424.410155
 20
386.034477
 30
0.0
 10
424.874352
 20
386.302571
 30
0.0
 10
425.160200
 20
386.798004
 30
0.0
 10
425.159967
 20
387.334057
 30
0.0
  0
LINE
  5
17c
100
AcDbEntity
  8
0
 62
7
100
AcDbLine
 10
425.159967
 20
387.334057
 30
0.0
 11
425.159967
 21
387.334057
 31
0.0
  0
SPLINE
  5
17d
100
AcDbEntity
  8
0
 62
7
100
AcDbSpline
 70
8
 71
3
 72
8
 73
4
 74
0
 40
0
 40
0
 40
0
 40
0
 40
1
 40
1
 40
1
 40
1
 10
445.159967
 20
312.334057
 30
0.0
 10
445.160200
 20
312.870110
 30
0.0
 10
444.874352
 20
313.365544
 30
0.0
 10
444.410155
 20
313.633637
 30
0.0
  0
SPLINE
  5
17e
100
AcDbEntity
  8
0
 62
7
100
AcDbSpline
 70
8
 71
3
 72
8
 73
4
 74
0
 40
0
 40
0
 40
0
 40
0
 40
1
 40
1
 40
1
 40
1
 10
444.410155
 20
313.633637
 30
0.0
 10
443.945958
 20
313.901731
 30
0.0
 10
443.373977
 20
313.901731
 30
0.0
 10
442.909780
 20
313.633637
 30
0.0
  0
SPLINE
  5
17f
100
AcDbEntity
  8
0
 62
7
100
AcDbSpline
 70
8
 71
3
 72
8
 73
4
 74
0
 40
0
 40
0
 40
0
 40
0
 40
1
 40
1
 40
1
 40
1
 10
442.909780
 20
313.633637
 30
0.0
 10
442.445582
 20
313.365544
 30
0.0
 10
442.159735
 20
312.870110
 30
0.0
 10
442.159967
 20
312.334057
 30
0.0
  0
SPLINE
  5
180
100
AcDbEntity
  8
0
 62
7
100
AcDbSpline
 70
8
 71
3
 72
8
 73
4
 74
0
 40
0
 40
0
 40
0
 40
0
 40
1
 40
1
 40
1
 40
1
 10
442.159967
 20
312.334057
 30
0.0
 10
442.159735
 20
311.798004
 30
0.0
 10
442.445582
 20
311.302570
 30
0.0
 10
442.909780
 20
311.034477
 30
0.0
  0
SPLINE
  5
181
100
AcDbEntity
  8
0
 62
7
100
AcDbSpline
 70
8
 71
3
 72
8
 73
4
 74
0
 40
0
 40
0
 40
0
 40
0
 40
1
 40
1
 40
1
 40
1
 10
442.909780
 20
311.034477
 30
0.0
 10
443.373977
 20
310.766383
 30
0.0
 10
443.945958
 20
310.766383
 30
0.0
 10
444.410155
 20
311.034477
 30
0.0
  0
SPLINE
  5
182
100
AcDbEntity
  8
0
 62
7
100
AcDbSpline
 70
8
 71
3
 72
8
 73
4
 74
0
 40
0
 40
0
 40
0
 40
0
 40
1
 40
1
 40
1
 40
1
 10
444.410155
 20
311.034477
 30
0.0
 10
444.874352
 20
311.302570
 30
0.0
 10
445.160200
 20
311.798004
 30
0.0
 10
445.159967
 20
312.334057
 30
0.0
  0
LINE
  5
183
100
AcDbEntity
  8
0
 62
7
100
AcDbLine
 10
445.159967
 20
312.334057
 30
0.0
 11
445.159967
 21
312.334057
 31
0.0
  0
SPLINE
  5
184
100
AcDbEntity
  8
0
 62
7
100
AcDbSpline
 70
8
 71
3
 72
8
 73
4
 74
0
 40
0
 40
0
 40
0
 40
0
 40
1
 40
1
 40
1
 40
1
 10
445.159967
 20
267.334057
 30
0.0
 10
445.160200
 20
267.870110
 30
0.0
 10
444.874352
 20
268.365544
 30
0.0
 10
444.410155
 20
268.633637
 30
0.0
  0
SPLINE
  5
185
100
AcDbEntity
  8
0
 62
7
100
AcDbSpline
 70
8
 71
3
 72
8
 73
4
 74
0
 40
0
 40
0
 40
0
 40
0
 40
1
 40
1
 40
1
 40
1
 10
444.410155
 20
268.633637
 30
0.0
 10
443.945958
 20
268.901731
 30
0.0
 10
443.373977
 20
268.901731
 30
0.0
 10
442.909780
 20
268.633637
 30
0.0
  0
SPLINE
  5
186
100
AcDbEntity
  8
0
 62
7
100
AcDbSpline
 70
8
 71
3
 72
8
 73
4
 74
0
 40
0
 40
0
 40
0
 40
0
 40
1
 40
1
 40
1
 40
1
 10
442.909780
 20
268.633637
 30
0.0
 10
442.445582
 20
268.365544
 30
0.0
 10
442.159735
 20
267.870110
 30
0.0
 10
442.159967
 20
267.334057
 30
0.0
  0
SPLINE
  5
187
100
AcDbEntity
  8
0
 62
7
100
AcDbSpline
 70
8
 71
3
 72
8
 73
4
 74
0
 40
0
 40
0
 40
0
 40
0
 40
1
 40
1
 40
1
 40
1
 10
442.159967
 20
267.334057
 30
0.0
 10
442.159735
 20
266.798004
 30
0.0
 10
442.445582
 20
266.302570
 30
0.0
 10
442.909780
 20
266.034477
 30
0.0
  0
SPLINE
  5
188
100
AcDbEntity
  8
0
 62
7
100
AcDbSpline
 70
8
 71
3
 72
8
 73
4
 74
0
 40
0
 40
0
 40
0
 40
0
 40
1
 40
1
 40
1
 40
1
 10
442.909780
 20
266.034477
 30
0.0
 10
443.373977
 20
265.766383
 30
0.0
 10
443.945958
 20
265.766383
 30
0.0
 10
444.410155
 20
266.034477
 30
0.0
  0
SPLINE
  5
189
100
AcDbEntity
  8
0
 62
7
100
AcDbSpline
 70
8
 71
3
 72
8
 73
4
 74
0
 40
0
 40
0
 40
0
 40
0
 40
1
 40
1
 40
1
 40
1
 10
444.410155
 20
266.034477
 30
0.0
 10
444.874352
 20
266.302570
 30
0.0
 10
445.160200
 20
266.798004
 30
0.0
 10
445.159967
 20
267.334057
 30
0.0
  0
LINE
  5
18a
100
AcDbEntity
  8
0
 62
7
100
AcDbLine
 10
445.159967
 20
267.334057
 30
0.0
 11
445.159967
 21
267.334057
 31
0.0
  0
SPLINE
  5
18b
100
AcDbEntity
  8
0
 62
7
100
AcDbSpline
 70
8
 71
3
 72
8
 73
4
 74
0
 40
0
 40
0
 40
0
 40
0
 40
1
 40
1
 40
1
 40
1
 10
425.159967
 20
237.334057
 30
0.0
 10
425.160200
 20
237.870111
 30
0.0
 10
424.874352
 20
238.365544
 30
0.0
 10
424.410155
 20
238.633638
 30
0.0
  0
SPLINE
  5
18c
100
AcDbEntity
  8
0
 62
7
100
AcDbSpline
 70
8
 71
3
 72
8
 73
4
 74
0
 40
0
 40
0
 40
0
 40
0
 40
1
 40
1
 40
1
 40
1
 10
424.410155
 20
238.633638
 30
0.0
 10
423.945958
 20
238.901731
 30
0.0
 10
423.373977
 20
238.901731
 30
0.0
 10
422.909779
 20
238.633638
 30
0.0
  0
SPLINE
  5
18d
100
AcDbEntity
  8
0
 62
7
100
AcDbSpline
 70
8
 71
3
 72
8
 73
4
 74
0
 40
0
 40
0
 40
0
 40
0
 40
1
 40
1
 40
1
 40
1
 10
422.909779
 20
238.633638
 30
0.0
 10
422.445582
 20
238.365544
 30
0.0
 10
422.159735
 20
237.870111
 30
0.0
 10
422.159967
 20
237.334057
 30
0.0
  0
SPLINE
  5
18e
100
AcDbEntity
  8
0
 62
7
100
AcDbSpline
 70
8
 71
3
 72
8
 73
4
 74
0
 40
0
 40
0
 40
0
 40
0
 40
1
 40
1
 40
1
 40
1
 10
422.159967
 20
237.334057
 30
0.0
 10
422.159735
 20
236.798004
 30
0.0
 10
422.445582
 20
236.302571
 30
0.0
 10
422.909779
 20
236.034477
 30
0.0
  0
SPLINE
  5
18f
100
AcDbEntity
  8
0
 62
7
100
AcDbSpline
 70
8
 71
3
 72
8
 73
4
 74
0
 40
0
 40
0
 40
0
 40
0
 40
1
 40
1
 40
1
 40
1
 10
422.909779
 20
236.034477
 30
0.0
 10
423.373977
 20
235.766383
 30
0.0
 10
423.945958
 20
235.766383
 30
0.0
 10
424.410155
 20
236.034477
 30
0.0
  0
SPLINE
  5
190
100
AcDbEntity
  8
0
 62
7
100
AcDbSpline
 70
8
 71
3
 72
8
 73
4
 74
0
 40
0
 40
0
 40
0
 40
0
 40
1
 40
1
 40
1
 40
1
 10
424.410155
 20
236.034477
 30
0.0
 10
424.874352
 20
236.302571
 30
0.0
 10
425.160200
 20
236.798004
 30
0.0
 10
425.159967
 20
237.334057
 30
0.0
  0
LINE
  5
191
100
AcDbEntity
  8
0
 62
7
100
AcDbLine
 10
425.159967
 20
237.334057
 30
0.0
 11
425.159967
 21
237.334057
 31
0.0
  0
SPLINE
  5
192
100
AcDbEntity
  8
0
 62
7
100
AcDbSpline
 70
8
 71
3
 72
8
 73
4
 74
0
 40
0
 40
0
 40
0
 40
0
 40
1
 40
1
 40
1
 40
1
 10
380.159967
 20
237.334057
 30
0.0
 10
380.160200
 20
237.870111
 30
0.0
 10
379.874352
 20
238.365544
 30
0.0
 10
379.410155
 20
238.633638
 30
0.0
  0
SPLINE
  5
193
100
AcDbEntity
  8
0
 62
7
100
AcDbSpline
 70
8
 71
3
 72
8
 73
4
 74
0
 40
0
 40
0
 40
0
 40
0
 40
1
 40
1
 40
1
 40
1
 10
379.410155
 20
238.633638
 30
0.0
 10
378.945958
 20
238.901731
 30
0.0
 10
378.373977
 20
238.901731
 30
0.0
 10
377.909779
 20
238.633638
 30
0.0
  0
SPLINE
  5
194
100
AcDbEntity
  8
0
 62
7
100
AcDbSpline
 70
8
 71
3
 72
8
 73
4
 74
0
 40
0
 40
0
 40
0
 40
0
 40
1
 40
1
 40
1
 40
1
 10
377.909779
 20
238.633638
 30
0.0
 10
377.445582
 20
238.365544
 30
0.0
 10
377.159735
 20
237.870111
 30
0.0
 10
377.159967
 20
237.334057
 30
0.0
  0
SPLINE
  5
195
100
AcDbEntity
  8
0
 62
7
100
AcDbSpline
 70
8
 71
3
 72
8
 73
4
 74
0
 40
0
 40
0
 40
0
 40
0
 40
1
 40
1
 40
1
 40
1
 10
377.159967
 20
237.334057
 30
0.0
 10
377.159735
 20
236.798004
 30
0.0
 10
377.445582
 20
236.302571
 30
0.0
 10
377.909779
 20
236.034477
 30
0.0
  0
SPLINE
  5
196
100
AcDbEntity
  8
0
 62
7
100
AcDbSpline
 70
8
 71
3
 72
8
 73
4
 74
0
 40
0
 40
0
 40
0
 40
0
 40
1
 40
1
 40
1
 40
1
 10
377.909779
 20
236.034477
 30
0.0
 10
378.373977
 20
235.766383
 30
0.0
 10
378.945958
 20
235.766383
 30
0.0
 10
379.410155
 20
236.034477
 30
0.0
  0
SPLINE
  5
197
100
AcDbEntity
  8
0
 62
7
100
AcDbSpline
 70
8
 71
3
 72
8
 73
4
 74
0
 40
0
 40
0
 40
0
 40
0
 40
1
 40
1
 40
1
 40
1
 10
379.410155
 20
236.034477
 30
0.0
 10
379.874352
 20
236.302571
 30
0.0
 10
380.160200
 20
236.798004
 30
0.0
 10
380.159967
 20
237.334057
 30
0.0
  0
LINE
  5
198
100
AcDbEntity
  8
0
 62
7
100
AcDbLine
 10
380.159967
 20
237.334057
 30
0.0
 11
380.159967
 21
237.334057
 31
0.0
  0
LINE
  5
199
100
AcDbEntity
  8
0
 62
7
100
AcDbLine
 10
388.493306
 20
256.834056
 30
0.0
 11
424.159980
 21
256.834056
 31
0.0
  0
SPLINE
  5
19a
100
AcDbEntity
  8
0
 62
7
100
AcDbSpline
 70
8
 71
3
 72
8
 73
4
 74
0
 40
0
 40
0
 40
0
 40
0
 40
1
 40
1
 40
1
 40
1
 10
270.159967
 20
357.334057
 30
0.0
 10
270.159967
 20
357.869956
 30
0.0
 10
269.874069
 20
358.365146
 30
0.0
 10
269.409967
 20
358.633095
 30
0.0
  0
SPLINE
  5
19b
100
AcDbEntity
  8
0
 62
7
100
AcDbSpline
 70
8
 71
3
 72
8
 73
4
 74
0
 40
0
 40
0
 40
0
 40
0
 40
1
 40
1
 40
1
 40
1
 10
269.409967
 20
358.633095
 30
0.0
 10
268.945866
 20
358.901045
 30
0.0
 10
268.374069
 20
358.901045
 30
0.0
 10
267.909967
 20
358.633095
 30
0.0
  0
SPLINE
  5
19c
100
AcDbEntity
  8
0
 62
7
100
AcDbSpline
 70
8
 71
3
 72
8
 73
4
 74
0
 40
0
 40
0
 40
0
 40
0
 40
1
 40
1
 40
1
 40
1
 10
267.909967
 20
358.633095
 30
0.0
 10
267.445865
 20
358.365146
 30
0.0
 10
267.159967
 20
357.869956
 30
0.0
 10
267.159967
 20
357.334057
 30
0.0
  0
SPLINE
  5
19d
100
AcDbEntity
  8
0
 62
7
100
AcDbSpline
 70
8
 71
3
 72
8
 73
4
 74
0
 40
0
 40
0
 40
0
 40
0
 40
1
 40
1
 40
1
 40
1
 10
267.159967
 20
357.334057
 30
0.0
 10
267.159967
 20
356.798159
 30
0.0
 10
267.445865
 20
356.302968
 30
0.0
 10
267.909967
 20
356.035019
 30
0.0
  0
SPLINE
  5
19e
100
AcDbEntity
  8
0
 62
7
100
AcDbSpline
 70
8
 71
3
 72
8
 73
4
 74
0
 40
0
 40
0
 40
0
 40
0
 40
1
 40
1
 40
1
 40
1
 10
267.909967
 20
356.035019
 30
0.0
 10
268.374069
 20
355.767069
 30
0.0
 10
268.945866
 20
355.767069
 30
0.0
 10
269.409967
 20
356.035019
 30
0.0
  0
SPLINE
  5
19f
100
AcDbEntity
  8
0
 62
7
100
AcDbSpline
 70
8
 71
3
 72
8
 73
4
 74
0
 40
0
 40
0
 40
0
 40
0
 40
1
 40
1
 40
1
 40
1
 10
269.409967
 20
356.035019
 30
0.0
 10
269.874069
 20
356.302968
 30
0.0
 10
270.159967
 20
356.798159
 30
0.0
 10
270.159967
 20
357.334057
 30
0.0
  0
LINE
  5
1a0
100
AcDbEntity
  8
0
 62
7
100
AcDbLine
 10
270.159967
 20
357.334057
 30
0.0
 11
270.159967
 21
357.334057
 31
0.0
  0
SPLINE
  5
1a1
100
AcDbEntity
  8
0
 62
7
100
AcDbSpline
 70
8
 71
3
 72
8
 73
4
 74
0
 40
0
 40
0
 40
0
 40
0
 40
1
 40
1
 40
1
 40
1
 10
270.159967
 20
312.334057
 30
0.0
 10
270.159967
 20
312.869956
 30
0.0
 10
269.874069
 20
313.365146
 30
0.0
 10
269.409967
 20
313.633095
 30
0.0
  0
SPLINE
  5
1a2
100
AcDbEntity
  8
0
 62
7
100
AcDbSpline
 70
8
 71
3
 72
8
 73
4
 74
0
 40
0
 40
0
 40
0
 40
0
 40
1
 40
1
 40
1
 40
1
 10
269.409967
 20
313.633095
 30
0.0
 10
268.945866
 20
313.901045
 30
0.0
 10
268.374069
 20
313.901045
 30
0.0
 10
267.909967
 20
313.633095
 30
0.0
  0
SPLINE
  5
1a3
100
AcDbEntity
  8
0
 62
7
100
AcDbSpline
 70
8
 71
3
 72
8
 73
4
 74
0
 40
0
 40
0
 40
0
 40
0
 40
1
 40
1
 40
1
 40
1
 10
267.909967
 20
313.633095
 30
0.0
 10
267.445865
 20
313.365146
 30
0.0
 10
267.159967
 20
312.869956
 30
0.0
 10
267.159967
 20
312.334057
 30
0.0
  0
SPLINE
  5
1a4
100
AcDbEntity
  8
0
 62
7
100
AcDbSpline
 70
8
 71
3
 72
8
 73
4
 74
0
 40
0
 40
0
 40
0
 40
0
 40
1
 40
1
 40
1
 40
1
 10
267.159967
 20
312.334057
 30
0.0
 10
267.159967
 20
311.798159
 30
0.0
 10
267.445865
 20
311.302968
 30
0.0
 10
267.909967
 20
311.035019
 30
0.0
  0
SPLINE
  5
1a5
100
AcDbEntity
  8
0
 62
7
100
AcDbSpline
 70
8
 71
3
 72
8
 73
4
 74
0
 40
0
 40
0
 40
0
 40
0
 40
1
 40
1
 40
1
 40
1
 10
267.909967
 20
311.035019
 30
0.0
 10
268.374069
 20
310.767069
 30
0.0
 10
268.945866
 20
310.767069
 30
0.0
 10
269.409967
 20
311.035019
 30
0.0
  0
SPLINE
  5
1a6
100
AcDbEntity
  8
0
 62
7
100
AcDbSpline
 70
8
 71
3
 72
8
 73
4
 74
0
 40
0
 40
0
 40
0
 40
0
 40
1
 40
1
 40
1
 40
1
 10
269.409967
 20
311.035019
 30
0.0
 10
269.874069
 20
311.302968
 30
0.0
 10
270.159967
 20
311.798159
 30
0.0
 10
270.159967
 20
312.334057
 30
0.0
  0
LINE
  5
1a7
100
AcDbEntity
  8
0
 62
7
100
AcDbLine
 10
270.159967
 20
312.334057
 30
0.0
 11
270.159967
 21
312.334057
 31
0.0
  0
SPLINE
  5
1a8
100
AcDbEntity
  8
0
 62
7
100
AcDbSpline
 70
8
 71
3
 72
8
 73
4
 74
0
 40
0
 40
0
 40
0
 40
0
 40
1
 40
1
 40
1
 40
1
 10
270.159967
 20
267.334057
 30
0.0
 10
270.159967
 20
267.869955
 30
0.0
 10
269.874069
 20
268.365146
 30
0.0
 10
269.409967
 20
268.633095
 30
0.0
  0
SPLINE
  5
1a9
100
AcDbEntity
  8
0
 62
7
100
AcDbSpline
 70
8
 71
3
 72
8
 73
4
 74
0
 40
0
 40
0
 40
0
 40
0
 40
1
 40
1
 40
1
 40
1
 10
269.409967
 20
268.633095
 30
0.0
 10
268.945866
 20
268.901045
 30
0.0
 10
268.374069
 20
268.901045
 30
0.0
 10
267.909967
 20
268.633095
 30
0.0
  0
SPLINE
  5
1aa
100
AcDbEntity
  8
0
 62
7
100
AcDbSpline
 70
8
 71
3
 72
8
 73
4
 74
0
 40
0
 40
0
 40
0
 40
0
 40
1
 40
1
 40
1
 40
1
 10
267.909967
 20
268.633095
 30
0.0
 10
267.445865
 20
268.365146
 30
0.0
 10
267.159967
 20
267.869955
 30
0.0
 10
267.159967
 20
267.334057
 30
0.0
  0
SPLINE
  5
1ab
100
AcDbEntity
  8
0
 62
7
100
AcDbSpline
 70
8
 71
3
 72
8
 73
4
 74
0
 40
0
 40
0
 40
0
 40
0
 40
1
 40
1
 40
1
 40
1
 10
267.159967
 20
267.334057
 30
0.0
 10
267.159967
 20
266.798159
 30
0.0
 10
267.445865
 20
266.302968
 30
0.0
 10
267.909967
 20
266.035019
 30
0.0
  0
SPLINE
  5
1ac
100
AcDbEntity
  8
0
 62
7
100
AcDbSpline
 70
8
 71
3
 72
8
 73
4
 74
0
 40
0
 40
0
 40
0
 40
0
 40
1
 40
1
 40
1
 40
1
 10
267.909967
 20
266.035019
 30
0.0
 10
268.374069
 20
265.767069
 30
0.0
 10
268.945866
 20
265.767069
 30
0.0
 10
269.409967
 20
266.035019
 30
0.0
  0
SPLINE
  5
1ad
100
AcDbEntity
  8
0
 62
7
100
AcDbSpline
 70
8
 71
3
 72
8
 73
4
 74
0
 40
0
 40
0
 40
0
 40
0
 40
1
 40
1
 40
1
 40
1
 10
269.409967
 20
266.035019
 30
0.0
 10
269.874069
 20
266.302968
 30
0.0
 10
270.159967
 20
266.798159
 30
0.0
 10
270.159967
 20
267.334057
 30
0.0
  0
LINE
  5
1ae
100
AcDbEntity
  8
0
 62
7
100
AcDbLine
 10
270.159967
 20
267.334057
 30
0.0
 11
270.159967
 21
267.334057
 31
0.0
  0
SPLINE
  5
1af
100
AcDbEntity
  8
0
 62
7
100
AcDbSpline
 70
8
 71
3
 72
8
 73
4
 74
0
 40
0
 40
0
 40
0
 40
0
 40
1
 40
1
 40
1
 40
1
 10
276.159967
 20
394.834057
 30
0.0
 10
272.181720
 20
394.834057
 30
0.0
 10
268.366411
 20
393.253705
 30
0.0
 10
265.553366
 20
390.440659
 30
0.0
  0
SPLINE
  5
1b0
100
AcDbEntity
  8
0
 62
7
100
AcDbSpline
 70
8
 71
3
 72
8
 73
4
 74
0
 40
0
 40
0
 40
0
 40
0
 40
1
 40
1
 40
1
 40
1
 10
265.553366
 20
390.440659
 30
0.0
 10
262.740320
 20
387.627613
 30
0.0
 10
261.159967
 20
383.812305
 30
0.0
 10
261.159967
 20
379.834057
 30
0.0
  0
LINE
  5
1b1
100
AcDbEntity
  8
0
 62
7
100
AcDbLine
 10
261.159967
 20
379.834057
 30
0.0
 11
261.159967
 21
246.834057
 31
0.0
  0
SPLINE
  5
1b2
100
AcDbEntity
  8
0
 62
7
100
AcDbSpline
 70
8
 71
3
 72
8
 73
4
 74
0
 40
0
 40
0
 40
0
 40
0
 40
1
 40
1
 40
1
 40
1
 10
261.159967
 20
246.834057
 30
0.0
 10
261.159967
 20
242.855810
 30
0.0
 10
262.740320
 20
239.040501
 30
0.0
 10
265.553366
 20
236.227455
 30
0.0
  0
SPLINE
  5
1b3
100
AcDbEntity
  8
0
 62
7
100
AcDbSpline
 70
8
 71
3
 72
8
 73
4
 74
0
 40
0
 40
0
 40
0
 40
0
 40
1
 40
1
 40
1
 40
1
 10
265.553366
 20
236.227455
 30
0.0
 10
268.366411
 20
233.414410
 30
0.0
 10
272.181720
 20
231.834057
 30
0.0
 10
276.159967
 20
231.834057
 30
0.0
  0
LINE
  5
1b4
100
AcDbEntity
  8
0
 62
7
100
AcDbLine
 10
276.159967
 20
231.834057
 30
0.0
 11
436.159967
 21
231.834057
 31
0.0
  0
SPLINE
  5
1b5
100
AcDbEntity
  8
0
 62
7
100
AcDbSpline
 70
8
 71
3
 72
8
 73
4
 74
0
 40
0
 40
0
 40
0
 40
0
 40
1
 40
1
 40
1
 40
1
 10
436.159967
 20
231.834057
 30
0.0
 10
440.138215
 20
231.834057
 30
0.0
 10
443.953523
 20
233.414410
 30
0.0
 10
446.766569
 20
236.227455
 30
0.0
  0
SPLINE
  5
1b6
100
AcDbEntity
  8
0
 62
7
100
AcDbSpline
 70
8
 71
3
 72
8
 73
4
 74
0
 40
0
 40
0
 40
0
 40
0
 40
1
 40
1
 40
1
 40
1
 10
446.766569
 20
236.227455
 30
0.0
 10
449.579615
 20
239.040501
 30
0.0
 10
451.159967
 20
242.855810
 30
0.0
 10
451.159967
 20
246.834057
 30
0.0
  0
LINE
  5
1b7
100
AcDbEntity
  8
0
 62
7
100
AcDbLine
 10
451.159967
 20
246.834057
 30
0.0
 11
451.159967
 21
379.834057
 31
0.0
  0
SPLINE
  5
1b8
100
AcDbEntity
  8
0
 62
7
100
AcDbSpline
 70
8
 71
3
 72
8
 73
4
 74
0
 40
0
 40
0
 40
0
 40
0
 40
1
 40
1
 40
1
 40
1
 10
451.159967
 20
379.834057
 30
0.0
 10
451.159967
 20
383.812305
 30
0.0
 10
449.579615
 20
387.627613
 30
0.0
 10
446.766569
 20
390.440659
 30
0.0
  0
SPLINE
  5
1b9
100
AcDbEntity
  8
0
 62
7
100
AcDbSpline
 70
8
 71
3
 72
8
 73
4
 74
0
 40
0
 40
0
 40
0
 40
0
 40
1
 40
1
 40
1
 40
1
 10
446.766569
 20
390.440659
 30
0.0
 10
443.953523
 20
393.253705
 30
0.0
 10
440.138215
 20
394.834057
 30
0.0
 10
436.159967
 20
394.834057
 30
0.0
  0
LINE
  5
1ba
100
AcDbEntity
  8
0
 62
7
100
AcDbLine
 10
436.159967
 20
394.834057
 30
0.0
 11
276.159967
 21
394.834057
 31
0.0
  0
LINE
  5
1bb
100
AcDbEntity
  8
0
 62
7
100
AcDbLine
 10
427.159971
 20
332.334057
 30
0.0
 11
427.159971
 21
292.334058
 31
0.0
  0
LINE
  5
1bc
100
AcDbEntity
  8
0
 62
7
100
AcDbLine
 10
424.159980
 20
332.334057
 30
0.0
 11
427.159971
 21
332.334057
 31
0.0
  0
LINE
  5
1bd
100
AcDbEntity
  8
0
 62
7
100
AcDbLine
 10
427.159971
 20
292.334058
 30
0.0
 11
424.159980
 21
292.334058
 31
0.0
  0
LINE
  5
1be
100
AcDbEntity
  8
0
 62
7
100
AcDbLine
 10
378.493300
 20
370.834057
 30
0.0
 11
388.493306
 21
370.834057
 31
0.0
  0
LINE
  5
1bf
100
AcDbEntity
  8
0
 62
7
100
AcDbLine
 10
388.493306
 20
370.834057
 30
0.0
 11
388.493306
 21
367.834058
 31
0.0
  0
LINE
  5
1c0
100
AcDbEntity
  8
0
 62
7
100
AcDbLine
 10
378.493300
 20
367.834058
 30
0.0
 11
378.493300
 21
370.834057
 31
0.0
  0
LINE
  5
1c1
100
AcDbEntity
  8
0
 62
7
100
AcDbLine
 10
323.826632
 20
370.834057
 30
0.0
 11
333.826638
 21
370.834057
 31
0.0
  0
LINE
  5
1c2
100
AcDbEntity
  8
0
 62
7
100
AcDbLine
 10
333.826638
 20
370.834057
 30
0.0
 11
333.826638
 21
367.834058
 31
0.0
  0
LINE
  5
1c3
100
AcDbEntity
  8
0
 62
7
100
AcDbLine
 10
323.826632
 20
367.834058
 30
0.0
 11
323.826632
 21
370.834057
 31
0.0
  0
LINE
  5
1c4
100
AcDbEntity
  8
0
 62
7
100
AcDbLine
 10
285.159967
 20
292.334058
 30
0.0
 11
285.159967
 21
332.334057
 31
0.0
  0
LINE
  5
1c5
100
AcDbEntity
  8
0
 62
7
100
AcDbLine
 10
285.159967
 20
332.334057
 30
0.0
 11
288.159973
 21
332.334057
 31
0.0
  0
LINE
  5
1c6
100
AcDbEntity
  8
0
 62
7
100
AcDbLine
 10
288.159973
 20
292.334058
 30
0.0
 11
285.159967
 21
292.334058
 31
0.0
  0
LINE
  5
1c7
100
AcDbEntity
  8
0
 62
7
100
AcDbLine
 10
333.826638
 20
253.834058
 30
0.0
 11
323.826632
 21
253.834058
 31
0.0
  0
SPLINE
  5
1c8
100
AcDbEntity
  8
0
 62
7
100
AcDbSpline
 70
8
 71
3
 72
8
 73
4
 74
0
 40
0
 40
0
 40
0
 40
0
 40
1
 40
1
 40
1
 40
1
 10
290.159967
 20
237.334057
 30
0.0
 10
290.160200
 20
237.870111
 30
0.0
 10
289.874352
 20
238.365544
 30
0.0
 10
289.410155
 20
238.633638
 30
0.0
  0
SPLINE
  5
1c9
100
AcDbEntity
  8
0
 62
7
100
AcDbSpline
 70
8
 71
3
 72
8
 73
4
 74
0
 40
0
 40
0
 40
0
 40
0
 40
1
 40
1
 40
1
 40
1
 10
289.410155
 20
238.633638
 30
0.0
 10
288.945958
 20
238.901731
 30
0.0
 10
288.373976
 20
238.901731
 30
0.0
 10
287.909779
 20
238.633638
 30
0.0
  0
SPLINE
  5
1ca
100
AcDbEntity
  8
0
 62
7
100
AcDbSpline
 70
8
 71
3
 72
8
 73
4
 74
0
 40
0
 40
0
 40
0
 40
0
 40
1
 40
1
 40
1
 40
1
 10
287.909779
 20
238.633638
 30
0.0
 10
287.445582
 20
238.365544
 30
0.0
 10
287.159735
 20
237.870111
 30
0.0
 10
287.159967
 20
237.334057
 30
0.0
  0
SPLINE
  5
1cb
100
AcDbEntity
  8
0
 62
7
100
AcDbSpline
 70
8
 71
3
 72
8
 73
4
 74
0
 40
0
 40
0
 40
0
 40
0
 40
1
 40
1
 40
1
 40
1
 10
287.159967
 20
237.334057
 30
0.0
 10
287.159735
 20
236.798004
 30
0.0
 10
287.445582
 20
236.302571
 30
0.0
 10
287.909779
 20
236.034477
 30
0.0
  0
SPLINE
  5
1cc
100
AcDbEntity
  8
0
 62
7
100
AcDbSpline
 70
8
 71
3
 72
8
 73
4
 74
0
 40
0
 40
0
 40
0
 40
0
 40
1
 40
1
 40
1
 40
1
 10
287.909779
 20
236.034477
 30
0.0
 10
288.373976
 20
235.766383
 30
0.0
 10
288.945958
 20
235.766383
 30
0.0
 10
289.410155
 20
236.034477
 30
0.0
  0
SPLINE
  5
1cd
100
AcDbEntity
  8
0
 62
7
100
AcDbSpline
 70
8
 71
3
 72
8
 73
4
 74
0
 40
0
 40
0
 40
0
 40
0
 40
1
 40
1
 40
1
 40
1
 10
289.410155
 20
236.034477
 30
0.0
 10
289.874352
 20
236.302571
 30
0.0
 10
290.160200
 20
236.798004
 30
0.0
 10
290.159967
 20
237.334057
 30
0.0
  0
LINE
  5
1ce
100
AcDbEntity
  8
0
 62
7
100
AcDbLine
 10
290.159967
 20
237.334057
 30
0.0
 11
290.159967
 21
237.334057
 31
0.0
  0
LINE
  5
1cf
100
AcDbEntity
  8
0
 62
7
100
AcDbLine
 10
388.493306
 20
253.834058
 30
0.0
 11
378.493300
 21
253.834058
 31
0.0
  0
LINE
  5
1d0
100
AcDbEntity
  8
0
 62
7
100
AcDbLine
 10
378.493300
 20
253.834058
 30
0.0
 11
378.493300
 21
256.834056
 31
0.0
  0
LINE
  5
1d1
100
AcDbEntity
  8
0
 62
7
100
AcDbLine
 10
388.493306
 20
256.834056
 30
0.0
 11
388.493306
 21
253.834058
 31
0.0
  0
LINE
  5
1d2
100
AcDbEntity
  8
0
 62
7
100
AcDbLine
 10
288.159973
 20
370.834057
 30
0.0
 11
285.159967
 21
370.834057
 31
0.0
  0
LINE
  5
1d3
100
AcDbEntity
  8
0
 62
7
100
AcDbLine
 10
288.159973
 20
380.834054
 30
0.0
 11
288.159973
 21
370.834057
 31
0.0
  0
LINE
  5
1d4
100
AcDbEntity
  8
0
 62
7
100
AcDbLine
 10
285.159967
 20
370.834057
 30
0.0
 11
285.159967
 21
380.834054
 31
0.0
  0
LINE
  5
1d5
100
AcDbEntity
  8
0
 62
7
100
AcDbLine
 10
285.159967
 20
380.834054
 30
0.0
 11
288.159973
 21
380.834054
 31
0.0
  0
LINE
  5
1d6
100
AcDbEntity
  8
0
 62
7
100
AcDbLine
 10
285.159967
 20
253.834058
 30
0.0
 11
288.159973
 21
253.834058
 31
0.0
  0
LINE
  5
1d7
100
AcDbEntity
  8
0
 62
7
100
AcDbLine
 10
285.159967
 20
243.834060
 30
0.0
 11
285.159967
 21
253.834058
 31
0.0
  0
LINE
  5
1d8
100
AcDbEntity
  8
0
 62
7
100
AcDbLine
 10
288.159973
 20
253.834058
 30
0.0
 11
288.159973
 21
243.834060
 31
0.0
  0
LINE
  5
1d9
100
AcDbEntity
  8
0
 62
7
100
AcDbLine
 10
288.159973
 20
243.834060
 30
0.0
 11
285.159967
 21
243.834060
 31
0.0
  0
LINE
  5
1da
100
AcDbEntity
  8
0
 62
7
100
AcDbLine
 10
427.159971
 20
243.834060
 30
0.0
 11
424.159980
 21
243.834060
 31
0.0
  0
LINE
  5
1db
100
AcDbEntity
  8
0
 62
7
100
AcDbLine
 10
427.159971
 20
253.834058
 30
0.0
 11
427.159971
 21
243.834060
 31
0.0
  0
LINE
  5
1dc
100
AcDbEntity
  8
0
 62
7
100
AcDbLine
 10
424.159980
 20
243.834060
 30
0.0
 11
424.159980
 21
253.834058
 31
0.0
  0
LINE
  5
1dd
100
AcDbEntity
  8
0
 62
7
100
AcDbLine
 10
424.159980
 20
253.834058
 30
0.0
 11
427.159971
 21
253.834058
 31
0.0
  0
LINE
  5
1de
100
AcDbEntity
  8
0
 62
7
100
AcDbLine
 10
424.159980
 20
380.834054
 30
0.0
 11
427.159971
 21
380.834054
 31
0.0
  0
LINE
  5
1df
100
AcDbEntity
  8
0
 62
7
100
AcDbLine
 10
424.159980
 20
370.834057
 30
0.0
 11
424.159980
 21
380.834054
 31
0.0
  0
LINE
  5
1e0
100
AcDbEntity
  8
0
 62
7
100
AcDbLine
 10
427.159971
 20
380.834054
 30
0.0
 11
427.159971
 21
370.834057
 31
0.0
  0
LINE
  5
1e1
100
AcDbEntity
  8
0
 62
7
100
AcDbLine
 10
427.159971
 20
370.834057
 30
0.0
 11
424.159980
 21
370.834057
 31
0.0
  0
LINE
  5
1e2
100
AcDbEntity
  8
0
 62
7
100
AcDbLine
 10
443.159974
 20
253.834058
 30
0.0
 11
433.159954
 21
253.834058
 31
0.0
  0
LINE
  5
1e3
100
AcDbEntity
  8
0
 62
7
100
AcDbLine
 10
443.159974
 20
256.834056
 30
0.0
 11
443.159974
 21
253.834058
 31
0.0
  0
LINE
  5
1e4
100
AcDbEntity
  8
0
 62
7
100
AcDbLine
 10
433.159954
 20
253.834058
 30
0.0
 11
433.159954
 21
256.834056
 31
0.0
  0
LINE
  5
1e5
100
AcDbEntity
  8
0
 62
7
100
AcDbLine
 10
433.159954
 20
256.834056
 30
0.0
 11
443.159974
 21
256.834056
 31
0.0
  0
LINE
  5
1e6
100
AcDbEntity
  8
0
 62
7
100
AcDbLine
 10
443.159974
 20
367.834058
 30
0.0
 11
433.159954
 21
367.834058
 31
0.0
  0
SPLINE
  5
1e7
100
AcDbEntity
  8
0
 62
7
100
AcDbSpline
 70
8
 71
3
 72
8
 73
4
 74
0
 40
0
 40
0
 40
0
 40
0
 40
1
 40
1
 40
1
 40
1
 10
335.159967
 20
237.334057
 30
0.0
 10
335.160200
 20
237.870111
 30
0.0
 10
334.874352
 20
238.365544
 30
0.0
 10
334.410155
 20
238.633638
 30
0.0
  0
SPLINE
  5
1e8
100
AcDbEntity
  8
0
 62
7
100
AcDbSpline
 70
8
 71
3
 72
8
 73
4
 74
0
 40
0
 40
0
 40
0
 40
0
 40
1
 40
1
 40
1
 40
1
 10
334.410155
 20
238.633638
 30
0.0
 10
333.945958
 20
238.901731
 30
0.0
 10
333.373976
 20
238.901731
 30
0.0
 10
332.909779
 20
238.633638
 30
0.0
  0
SPLINE
  5
1e9
100
AcDbEntity
  8
0
 62
7
100
AcDbSpline
 70
8
 71
3
 72
8
 73
4
 74
0
 40
0
 40
0
 40
0
 40
0
 40
1
 40
1
 40
1
 40
1
 10
332.909779
 20
238.633638
 30
0.0
 10
332.445582
 20
238.365544
 30
0.0
 10
332.159735
 20
237.870111
 30
0.0
 10
332.159967
 20
237.334057
 30
0.0
  0
SPLINE
  5
1ea
100
AcDbEntity
  8
0
 62
7
100
AcDbSpline
 70
8
 71
3
 72
8
 73
4
 74
0
 40
0
 40
0
 40
0
 40
0
 40
1
 40
1
 40
1
 40
1
 10
332.159967
 20
237.334057
 30
0.0
 10
332.159735
 20
236.798004
 30
0.0
 10
332.445582
 20
236.302571
 30
0.0
 10
332.909779
 20
236.034477
 30
0.0
  0
SPLINE
  5
1eb
100
AcDbEntity
  8
0
 62
7
100
AcDbSpline
 70
8
 71
3
 72
8
 73
4
 74
0
 40
0
 40
0
 40
0
 40
0
 40
1
 40
1
 40
1
 40
1
 10
332.909779
 20
236.034477
 30
0.0
 10
333.373976
 20
235.766383
 30
0.0
 10
333.945958
 20
235.766383
 30
0.0
 10
334.410155
 20
236.034477
 30
0.0
  0
SPLINE
  5
1ec
100
AcDbEntity
  8
0
 62
7
100
AcDbSpline
 70
8
 71
3
 72
8
 73
4
 74
0
 40
0
 40
0
 40
0
 40
0
 40
1
 40
1
 40
1
 40
1
 10
334.410155
 20
236.034477
 30
0.0
 10
334.874352
 20
236.302571
 30
0.0
 10
335.160200
 20
236.798004
 30
0.0
 10
335.159967
 20
237.334057
 30
0.0
  0
LINE
  5
1ed
100
AcDbEntity
  8
0
 62
7
100
AcDbLine
 10
335.159967
 20
237.334057
 30
0.0
 11
335.159967
 21
237.334057
 31
0.0
  0
LINE
  5
1ee
100
AcDbEntity
  8
0
 62
7
100
AcDbLine
 10
433.159954
 20
367.834058
 30
0.0
 11
433.159954
 21
370.834057
 31
0.0
  0
LINE
  5
1ef
100
AcDbEntity
  8
0
 62
7
100
AcDbLine
 10
433.159954
 20
370.834057
 30
0.0
 11
443.159974
 21
370.834057
 31
0.0
  0
LINE
  5
1f0
100
AcDbEntity
  8
0
 62
7
100
AcDbLine
 10
269.159964
 20
370.834057
 30
0.0
 11
279.159969
 21
370.834057
 31
0.0
  0
LINE
  5
1f1
100
AcDbEntity
  8
0
 62
7
100
AcDbLine
 10
269.159964
 20
367.834058
 30
0.0
 11
269.159964
 21
370.834057
 31
0.0
  0
LINE
  5
1f2
100
AcDbEntity
  8
0
 62
7
100
AcDbLine
 10
279.159969
 20
370.834057
 30
0.0
 11
279.159969
 21
367.834058
 31
0.0
  0
LINE
  5
1f3
100
AcDbEntity
  8
0
 62
7
100
AcDbLine
 10
279.159969
 20
367.834058
 30
0.0
 11
269.159964
 21
367.834058
 31
0.0
  0
LINE
  5
1f4
100
AcDbEntity
  8
0
 62
7
100
AcDbLine
 10
269.159964
 20
256.834056
 30
0.0
 11
279.159969
 21
256.834056
 31
0.0
  0
LINE
  5
1f5
100
AcDbEntity
  8
0
 62
7
100
AcDbLine
 10
269.159964
 20
253.834058
 30
0.0
 11
269.159964
 21
256.834056
 31
0.0
  0
LINE
  5
1f6
100
AcDbEntity
  8
0
 62
7
100
AcDbLine
 10
279.159969
 20
256.834056
 30
0.0
 11
279.159969
 21
253.834058
 31
0.0
  0
LINE
  5
1f7
100
AcDbEntity
  8
0
 62
7
100
AcDbLine
 10
279.159969
 20
253.834058
 30
0.0
 11
269.159964
 21
253.834058
 31
0.0
  0
SPLINE
  5
1f8
100
AcDbEntity
  8
0
 62
7
100
AcDbSpline
 70
8
 71
3
 72
8
 73
4
 74
0
 40
0
 40
0
 40
0
 40
0
 40
1
 40
1
 40
1
 40
1
 10
445.159967
 20
357.334057
 30
0.0
 10
445.160200
 20
357.870110
 30
0.0
 10
444.874352
 20
358.365544
 30
0.0
 10
444.410155
 20
358.633637
 30
0.0
  0
SPLINE
  5
1f9
100
AcDbEntity
  8
0
 62
7
100
AcDbSpline
 70
8
 71
3
 72
8
 73
4
 74
0
 40
0
 40
0
 40
0
 40
0
 40
1
 40
1
 40
1
 40
1
 10
444.410155
 20
358.633637
 30
0.0
 10
443.945958
 20
358.901731
 30
0.0
 10
443.373977
 20
358.901731
 30
0.0
 10
442.909780
 20
358.633637
 30
0.0
  0
SPLINE
  5
1fa
100
AcDbEntity
  8
0
 62
7
100
AcDbSpline
 70
8
 71
3
 72
8
 73
4
 74
0
 40
0
 40
0
 40
0
 40
0
 40
1
 40
1
 40
1
 40
1
 10
442.909780
 20
358.633637
 30
0.0
 10
442.445582
 20
358.365544
 30
0.0
 10
442.159735
 20
357.870110
 30
0.0
 10
442.159967
 20
357.334057
 30
0.0
  0
SPLINE
  5
1fb
100
AcDbEntity
  8
0
 62
7
100
AcDbSpline
 70
8
 71
3
 72
8
 73
4
 74
0
 40
0
 40
0
 40
0
 40
0
 40
1
 40
1
 40
1
 40
1
 10
442.159967
 20
357.334057
 30
0.0
 10
442.159735
 20
356.798004
 30
0.0
 10
442.445582
 20
356.302571
 30
0.0
 10
442.909780
 20
356.034477
 30
0.0
  0
SPLINE
  5
1fc
100
AcDbEntity
  8
0
 62
7
100
AcDbSpline
 70
8
 71
3
 72
8
 73
4
 74
0
 40
0
 40
0
 40
0
 40
0
 40
1
 40
1
 40
1
 40
1
 10
442.909780
 20
356.034477
 30
0.0
 10
443.373977
 20
355.766383
 30
0.0
 10
443.945958
 20
355.766383
 30
0.0
 10
444.410155
 20
356.034477
 30
0.0
  0
SPLINE
  5
1fd
100
AcDbEntity
  8
0
 62
7
100
AcDbSpline
 70
8
 71
3
 72
8
 73
4
 74
0
 40
0
 40
0
 40
0
 40
0
 40
1
 40
1
 40
1
 40
1
 10
444.410155
 20
356.034477
 30
0.0
 10
444.874352
 20
356.302571
 30
0.0
 10
445.160200
 20
356.798004
 30
0.0
 10
445.159967
 20
357.334057
 30
0.0
  0
LINE
  5
1fe
100
AcDbEntity
  8
0
 62
7
100
AcDbLine
 10
445.159967
 20
357.334057
 30
0.0
 11
445.159967
 21
357.334057
 31
0.0
  0
LINE
  5
1ff
100
AcDbEntity
  8
0
 62
7
100
AcDbLine
 10
443.159974
 20
370.834057
 30
0.0
 11
443.159974
 21
367.834058
 31
0.0
  0
LINE
  5
200
100
AcDbEntity
  8
0
 62
7
100
AcDbLine
 10
323.826632
 20
253.834058
 30
0.0
 11
323.826632
 21
256.834056
 31
0.0
  0
LINE
  5
201
100
AcDbEntity
  8
0
 62
7
100
AcDbLine
 10
333.826638
 20
256.834056
 30
0.0
 11
333.826638
 21
253.834058
 31
0.0
  0
SPLINE
  5
202
100
AcDbEntity
  8
0
 62
7
100
AcDbSpline
 70
8
 71
3
 72
8
 73
4
 74
0
 40
0
 40
0
 40
0
 40
0
 40
1
 40
1
 40
1
 40
1
 10
140.072260
 20
387.334057
 30
0.0
 10
140.072493
 20
387.870111
 30
0.0
 10
139.786645
 20
388.365544
 30
0.0
 10
139.322448
 20
388.633638
 30
0.0
  0
SPLINE
  5
203
100
AcDbEntity
  8
0
 62
7
100
AcDbSpline
 70
8
 71
3
 72
8
 73
4
 74
0
 40
0
 40
0
 40
0
 40
0
 40
1
 40
1
 40
1
 40
1
 10
139.322448
 20
388.633638
 30
0.0
 10
138.858251
 20
388.901731
 30
0.0
 10
138.286270
 20
388.901731
 30
0.0
 10
137.822073
 20
388.633638
 30
0.0
  0
SPLINE
  5
204
100
AcDbEntity
  8
0
 62
7
100
AcDbSpline
 70
8
 71
3
 72
8
 73
4
 74
0
 40
0
 40
0
 40
0
 40
0
 40
1
 40
1
 40
1
 40
1
 10
137.822073
 20
388.633638
 30
0.0
 10
137.357875
 20
388.365544
 30
0.0
 10
137.072028
 20
387.870111
 30
0.0
 10
137.072260
 20
387.334057
 30
0.0
  0
SPLINE
  5
205
100
AcDbEntity
  8
0
 62
7
100
AcDbSpline
 70
8
 71
3
 72
8
 73
4
 74
0
 40
0
 40
0
 40
0
 40
0
 40
1
 40
1
 40
1
 40
1
 10
137.072260
 20
387.334057
 30
0.0
 10
137.072028
 20
386.798004
 30
0.0
 10
137.357875
 20
386.302571
 30
0.0
 10
137.822073
 20
386.034477
 30
0.0
  0
SPLINE
  5
206
100
AcDbEntity
  8
0
 62
7
100
AcDbSpline
 70
8
 71
3
 72
8
 73
4
 74
0
 40
0
 40
0
 40
0
 40
0
 40
1
 40
1
 40
1
 40
1
 10
137.822073
 20
386.034477
 30
0.0
 10
138.286270
 20
385.766383
 30
0.0
 10
138.858251
 20
385.766383
 30
0.0
 10
139.322448
 20
386.034477
 30
0.0
  0
SPLINE
  5
207
100
AcDbEntity
  8
0
 62
7
100
AcDbSpline
 70
8
 71
3
 72
8
 73
4
 74
0
 40
0
 40
0
 40
0
 40
0
 40
1
 40
1
 40
1
 40
1
 10
139.322448
 20
386.034477
 30
0.0
 10
139.786645
 20
386.302571
 30
0.0
 10
140.072493
 20
386.798004
 30
0.0
 10
140.072260
 20
387.334057
 30
0.0
  0
LINE
  5
208
100
AcDbEntity
  8
0
 62
7
100
AcDbLine
 10
140.072260
 20
387.334057
 30
0.0
 11
140.072260
 21
387.334057
 31
0.0
  0
SPLINE
  5
209
100
AcDbEntity
  8
0
 62
7
100
AcDbSpline
 70
8
 71
3
 72
8
 73
4
 74
0
 40
0
 40
0
 40
0
 40
0
 40
1
 40
1
 40
1
 40
1
 10
230.072260
 20
237.334057
 30
0.0
 10
230.072493
 20
237.870111
 30
0.0
 10
229.786645
 20
238.365544
 30
0.0
 10
229.322448
 20
238.633638
 30
0.0
  0
SPLINE
  5
20a
100
AcDbEntity
  8
0
 62
7
100
AcDbSpline
 70
8
 71
3
 72
8
 73
4
 74
0
 40
0
 40
0
 40
0
 40
0
 40
1
 40
1
 40
1
 40
1
 10
229.322448
 20
238.633638
 30
0.0
 10
228.858251
 20
238.901731
 30
0.0
 10
228.286270
 20
238.901731
 30
0.0
 10
227.822073
 20
238.633638
 30
0.0
  0
SPLINE
  5
20b
100
AcDbEntity
  8
0
 62
7
100
AcDbSpline
 70
8
 71
3
 72
8
 73
4
 74
0
 40
0
 40
0
 40
0
 40
0
 40
1
 40
1
 40
1
 40
1
 10
227.822073
 20
238.633638
 30
0.0
 10
227.357876
 20
238.365544
 30
0.0
 10
227.072028
 20
237.870111
 30
0.0
 10
227.072261
 20
237.334057
 30
0.0
  0
SPLINE
  5
20c
100
AcDbEntity
  8
0
 62
7
100
AcDbSpline
 70
8
 71
3
 72
8
 73
4
 74
0
 40
0
 40
0
 40
0
 40
0
 40
1
 40
1
 40
1
 40
1
 10
227.072261
 20
237.334057
 30
0.0
 10
227.072028
 20
236.798004
 30
0.0
 10
227.357876
 20
236.302571
 30
0.0
 10
227.822073
 20
236.034477
 30
0.0
  0
SPLINE
  5
20d
100
AcDbEntity
  8
0
 62
7
100
AcDbSpline
 70
8
 71
3
 72
8
 73
4
 74
0
 40
0
 40
0
 40
0
 40
0
 40
1
 40
1
 40
1
 40
1
 10
227.822073
 20
236.034477
 30
0.0
 10
228.286270
 20
235.766383
 30
0.0
 10
228.858251
 20
235.766383
 30
0.0
 10
229.322448
 20
236.034477
 30
0.0
  0
SPLINE
  5
20e
100
AcDbEntity
  8
0
 62
7
100
AcDbSpline
 70
8
 71
3
 72
8
 73
4
 74
0
 40
0
 40
0
 40
0
 40
0
 40
1
 40
1
 40
1
 40
1
 10
229.322448
 20
236.034477
 30
0.0
 10
229.786645
 20
236.302571
 30
0.0
 10
230.072493
 20
236.798004
 30
0.0
 10
230.072260
 20
237.334057
 30
0.0
  0
LINE
  5
20f
100
AcDbEntity
  8
0
 62
7
100
AcDbLine
 10
230.072260
 20
237.334057
 30
0.0
 11
230.072260
 21
237.334057
 31
0.0
  0
SPLINE
  5
210
100
AcDbEntity
  8
0
 62
7
100
AcDbSpline
 70
8
 71
3
 72
8
 73
4
 74
0
 40
0
 40
0
 40
0
 40
0
 40
1
 40
1
 40
1
 40
1
 10
250.072261
 20
312.334057
 30
0.0
 10
250.072261
 20
312.869956
 30
0.0
 10
249.786362
 20
313.365146
 30
0.0
 10
249.322261
 20
313.633095
 30
0.0
  0
SPLINE
  5
211
100
AcDbEntity
  8
0
 62
7
100
AcDbSpline
 70
8
 71
3
 72
8
 73
4
 74
0
 40
0
 40
0
 40
0
 40
0
 40
1
 40
1
 40
1
 40
1
 10
249.322261
 20
313.633095
 30
0.0
 10
248.858159
 20
313.901045
 30
0.0
 10
248.286362
 20
313.901045
 30
0.0
 10
247.822260
 20
313.633095
 30
0.0
  0
SPLINE
  5
212
100
AcDbEntity
  8
0
 62
7
100
AcDbSpline
 70
8
 71
3
 72
8
 73
4
 74
0
 40
0
 40
0
 40
0
 40
0
 40
1
 40
1
 40
1
 40
1
 10
247.822260
 20
313.633095
 30
0.0
 10
247.358159
 20
313.365146
 30
0.0
 10
247.072260
 20
312.869956
 30
0.0
 10
247.072260
 20
312.334057
 30
0.0
  0
SPLINE
  5
213
100
AcDbEntity
  8
0
 62
7
100
AcDbSpline
 70
8
 71
3
 72
8
 73
4
 74
0
 40
0
 40
0
 40
0
 40
0
 40
1
 40
1
 40
1
 40
1
 10
247.072260
 20
312.334057
 30
0.0
 10
247.072260
 20
311.798159
 30
0.0
 10
247.358159
 20
311.302968
 30
0.0
 10
247.822260
 20
311.035019
 30
0.0
  0
SPLINE
  5
214
100
AcDbEntity
  8
0
 62
7
100
AcDbSpline
 70
8
 71
3
 72
8
 73
4
 74
0
 40
0
 40
0
 40
0
 40
0
 40
1
 40
1
 40
1
 40
1
 10
247.822260
 20
311.035019
 30
0.0
 10
248.286362
 20
310.767070
 30
0.0
 10
248.858159
 20
310.767070
 30
0.0
 10
249.322261
 20
311.035019
 30
0.0
  0
SPLINE
  5
215
100
AcDbEntity
  8
0
 62
7
100
AcDbSpline
 70
8
 71
3
 72
8
 73
4
 74
0
 40
0
 40
0
 40
0
 40
0
 40
1
 40
1
 40
1
 40
1
 10
249.322261
 20
311.035019
 30
0.0
 10
249.786362
 20
311.302968
 30
0.0
 10
250.072261
 20
311.798159
 30
0.0
 10
250.072261
 20
312.334057
 30
0.0
  0
LINE
  5
216
100
AcDbEntity
  8
0
 62
7
100
AcDbLine
 10
250.072261
 20
312.334057
 30
0.0
 11
250.072261
 21
312.334057
 31
0.0
  0
SPLINE
  5
217
100
AcDbEntity
  8
0
 62
7
100
AcDbSpline
 70
8
 71
3
 72
8
 73
4
 74
0
 40
0
 40
0
 40
0
 40
0
 40
1
 40
1
 40
1
 40
1
 10
230.072260
 20
387.334057
 30
0.0
 10
230.072493
 20
387.870111
 30
0.0
 10
229.786645
 20
388.365544
 30
0.0
 10
229.322448
 20
388.633638
 30
0.0
  0
SPLINE
  5
218
100
AcDbEntity
  8
0
 62
7
100
AcDbSpline
 70
8
 71
3
 72
8
 73
4
 74
0
 40
0
 40
0
 40
0
 40
0
 40
1
 40
1
 40
1
 40
1
 10
229.322448
 20
388.633638
 30
0.0
 10
228.858251
 20
388.901731
 30
0.0
 10
228.286270
 20
388.901731
 30
0.0
 10
227.822073
 20
388.633638
 30
0.0
  0
SPLINE
  5
219
100
AcDbEntity
  8
0
 62
7
100
AcDbSpline
 70
8
 71
3
 72
8
 73
4
 74
0
 40
0
 40
0
 40
0
 40
0
 40
1
 40
1
 40
1
 40
1
 10
227.822073
 20
388.633638
 30
0.0
 10
227.357876
 20
388.365544
 30
0.0
 10
227.072028
 20
387.870111
 30
0.0
 10
227.072261
 20
387.334057
 30
0.0
  0
SPLINE
  5
21a
100
AcDbEntity
  8
0
 62
7
100
AcDbSpline
 70
8
 71
3
 72
8
 73
4
 74
0
 40
0
 40
0
 40
0
 40
0
 40
1
 40
1
 40
1
 40
1
 10
227.072261
 20
387.334057
 30
0.0
 10
227.072028
 20
386.798004
 30
0.0
 10
227.357876
 20
386.302571
 30
0.0
 10
227.822073
 20
386.034477
 30
0.0
  0
SPLINE
  5
21b
100
AcDbEntity
  8
0
 62
7
100
AcDbSpline
 70
8
 71
3
 72
8
 73
4
 74
0
 40
0
 40
0
 40
0
 40
0
 40
1
 40
1
 40
1
 40
1
 10
227.822073
 20
386.034477
 30
0.0
 10
228.286270
 20
385.766383
 30
0.0
 10
228.858251
 20
385.766383
 30
0.0
 10
229.322448
 20
386.034477
 30
0.0
  0
SPLINE
  5
21c
100
AcDbEntity
  8
0
 62
7
100
AcDbSpline
 70
8
 71
3
 72
8
 73
4
 74
0
 40
0
 40
0
 40
0
 40
0
 40
1
 40
1
 40
1
 40
1
 10
229.322448
 20
386.034477
 30
0.0
 10
229.786645
 20
386.302571
 30
0.0
 10
230.072493
 20
386.798004
 30
0.0
 10
230.072260
 20
387.334057
 30
0.0
  0
LINE
  5
21d
100
AcDbEntity
  8
0
 62
7
100
AcDbLine
 10
230.072260
 20
387.334057
 30
0.0
 11
230.072260
 21
387.334057
 31
0.0
  0
SPLINE
  5
21e
100
AcDbEntity
  8
0
 62
7
100
AcDbSpline
 70
8
 71
3
 72
8
 73
4
 74
0
 40
0
 40
0
 40
0
 40
0
 40
1
 40
1
 40
1
 40
1
 10
75.072260
 20
312.334057
 30
0.0
 10
75.072493
 20
312.870110
 30
0.0
 10
74.786645
 20
313.365544
 30
0.0
 10
74.322448
 20
313.633637
 30
0.0
  0
SPLINE
  5
21f
100
AcDbEntity
  8
0
 62
7
100
AcDbSpline
 70
8
 71
3
 72
8
 73
4
 74
0
 40
0
 40
0
 40
0
 40
0
 40
1
 40
1
 40
1
 40
1
 10
74.322448
 20
313.633637
 30
0.0
 10
73.858251
 20
313.901731
 30
0.0
 10
73.286270
 20
313.901731
 30
0.0
 10
72.822072
 20
313.633637
 30
0.0
  0
SPLINE
  5
220
100
AcDbEntity
  8
0
 62
7
100
AcDbSpline
 70
8
 71
3
 72
8
 73
4
 74
0
 40
0
 40
0
 40
0
 40
0
 40
1
 40
1
 40
1
 40
1
 10
72.822072
 20
313.633637
 30
0.0
 10
72.357875
 20
313.365544
 30
0.0
 10
72.072028
 20
312.870110
 30
0.0
 10
72.072260
 20
312.334057
 30
0.0
  0
SPLINE
  5
221
100
AcDbEntity
  8
0
 62
7
100
AcDbSpline
 70
8
 71
3
 72
8
 73
4
 74
0
 40
0
 40
0
 40
0
 40
0
 40
1
 40
1
 40
1
 40
1
 10
72.072260
 20
312.334057
 30
0.0
 10
72.072028
 20
311.798004
 30
0.0
 10
72.357875
 20
311.302570
 30
0.0
 10
72.822072
 20
311.034477
 30
0.0
  0
SPLINE
  5
222
100
AcDbEntity
  8
0
 62
7
100
AcDbSpline
 70
8
 71
3
 72
8
 73
4
 74
0
 40
0
 40
0
 40
0
 40
0
 40
1
 40
1
 40
1
 40
1
 10
72.822072
 20
311.034477
 30
0.0
 10
73.286270
 20
310.766383
 30
0.0
 10
73.858251
 20
310.766383
 30
0.0
 10
74.322448
 20
311.034477
 30
0.0
  0
SPLINE
  5
223
100
AcDbEntity
  8
0
 62
7
100
AcDbSpline
 70
8
 71
3
 72
8
 73
4
 74
0
 40
0
 40
0
 40
0
 40
0
 40
1
 40
1
 40
1
 40
1
 10
74.322448
 20
311.034477
 30
0.0
 10
74.786645
 20
311.302570
 30
0.0
 10
75.072493
 20
311.798004
 30
0.0
 10
75.072260
 20
312.334057
 30
0.0
  0
LINE
  5
224
100
AcDbEntity
  8
0
 62
7
100
AcDbLine
 10
75.072260
 20
312.334057
 30
0.0
 11
75.072260
 21
312.334057
 31
0.0
  0
SPLINE
  5
225
100
AcDbEntity
  8
0
 62
7
100
AcDbSpline
 70
8
 71
3
 72
8
 73
4
 74
0
 40
0
 40
0
 40
0
 40
0
 40
1
 40
1
 40
1
 40
1
 10
185.072260
 20
237.334057
 30
0.0
 10
185.072493
 20
237.870111
 30
0.0
 10
184.786645
 20
238.365544
 30
0.0
 10
184.322448
 20
238.633638
 30
0.0
  0
SPLINE
  5
226
100
AcDbEntity
  8
0
 62
7
100
AcDbSpline
 70
8
 71
3
 72
8
 73
4
 74
0
 40
0
 40
0
 40
0
 40
0
 40
1
 40
1
 40
1
 40
1
 10
184.322448
 20
238.633638
 30
0.0
 10
183.858251
 20
238.901731
 30
0.0
 10
183.286270
 20
238.901731
 30
0.0
 10
182.822073
 20
238.633638
 30
0.0
  0
SPLINE
  5
227
100
AcDbEntity
  8
0
 62
7
100
AcDbSpline
 70
8
 71
3
 72
8
 73
4
 74
0
 40
0
 40
0
 40
0
 40
0
 40
1
 40
1
 40
1
 40
1
 10
182.822073
 20
238.633638
 30
0.0
 10
182.357876
 20
238.365544
 30
0.0
 10
182.072028
 20
237.870111
 30
0.0
 10
182.072261
 20
237.334057
 30
0.0
  0
SPLINE
  5
228
100
AcDbEntity
  8
0
 62
7
100
AcDbSpline
 70
8
 71
3
 72
8
 73
4
 74
0
 40
0
 40
0
 40
0
 40
0
 40
1
 40
1
 40
1
 40
1
 10
182.072261
 20
237.334057
 30
0.0
 10
182.072028
 20
236.798004
 30
0.0
 10
182.357876
 20
236.302571
 30
0.0
 10
182.822073
 20
236.034477
 30
0.0
  0
SPLINE
  5
229
100
AcDbEntity
  8
0
 62
7
100
AcDbSpline
 70
8
 71
3
 72
8
 73
4
 74
0
 40
0
 40
0
 40
0
 40
0
 40
1
 40
1
 40
1
 40
1
 10
182.822073
 20
236.034477
 30
0.0
 10
183.286270
 20
235.766383
 30
0.0
 10
183.858251
 20
235.766383
 30
0.0
 10
184.322448
 20
236.034477
 30
0.0
  0
SPLINE
  5
22a
100
AcDbEntity
  8
0
 62
7
100
AcDbSpline
 70
8
 71
3
 72
8
 73
4
 74
0
 40
0
 40
0
 40
0
 40
0
 40
1
 40
1
 40
1
 40
1
 10
184.322448
 20
236.034477
 30
0.0
 10
184.786645
 20
236.302571
 30
0.0
 10
185.072493
 20
236.798004
 30
0.0
 10
185.072260
 20
237.334057
 30
0.0
  0
LINE
  5
22b
100
AcDbEntity
  8
0
 62
7
100
AcDbLine
 10
185.072260
 20
237.334057
 30
0.0
 11
185.072260
 21
237.334057
 31
0.0
  0
SPLINE
  5
22c
100
AcDbEntity
  8
0
 62
7
100
AcDbSpline
 70
8
 71
3
 72
8
 73
4
 74
0
 40
0
 40
0
 40
0
 40
0
 40
1
 40
1
 40
1
 40
1
 10
75.072260
 20
267.334057
 30
0.0
 10
75.072493
 20
267.870110
 30
0.0
 10
74.786645
 20
268.365544
 30
0.0
 10
74.322448
 20
268.633637
 30
0.0
  0
SPLINE
  5
22d
100
AcDbEntity
  8
0
 62
7
100
AcDbSpline
 70
8
 71
3
 72
8
 73
4
 74
0
 40
0
 40
0
 40
0
 40
0
 40
1
 40
1
 40
1
 40
1
 10
74.322448
 20
268.633637
 30
0.0
 10
73.858251
 20
268.901731
 30
0.0
 10
73.286270
 20
268.901731
 30
0.0
 10
72.822072
 20
268.633637
 30
0.0
  0
SPLINE
  5
22e
100
AcDbEntity
  8
0
 62
7
100
AcDbSpline
 70
8
 71
3
 72
8
 73
4
 74
0
 40
0
 40
0
 40
0
 40
0
 40
1
 40
1
 40
1
 40
1
 10
72.822072
 20
268.633637
 30
0.0
 10
72.357875
 20
268.365544
 30
0.0
 10
72.072028
 20
267.870110
 30
0.0
 10
72.072260
 20
267.334057
 30
0.0
  0
SPLINE
  5
22f
100
AcDbEntity
  8
0
 62
7
100
AcDbSpline
 70
8
 71
3
 72
8
 73
4
 74
0
 40
0
 40
0
 40
0
 40
0
 40
1
 40
1
 40
1
 40
1
 10
72.072260
 20
267.334057
 30
0.0
 10
72.072028
 20
266.798004
 30
0.0
 10
72.357875
 20
266.302570
 30
0.0
 10
72.822072
 20
266.034477
 30
0.0
  0
SPLINE
  5
230
100
AcDbEntity
  8
0
 62
7
100
AcDbSpline
 70
8
 71
3
 72
8
 73
4
 74
0
 40
0
 40
0
 40
0
 40
0
 40
1
 40
1
 40
1
 40
1
 10
72.822072
 20
266.034477
 30
0.0
 10
73.286270
 20
265.766383
 30
0.0
 10
73.858251
 20
265.766383
 30
0.0
 10
74.322448
 20
266.034477
 30
0.0
  0
SPLINE
  5
231
100
AcDbEntity
  8
0
 62
7
100
AcDbSpline
 70
8
 71
3
 72
8
 73
4
 74
0
 40
0
 40
0
 40
0
 40
0
 40
1
 40
1
 40
1
 40
1
 10
74.322448
 20
266.034477
 30
0.0
 10
74.786645
 20
266.302570
 30
0.0
 10
75.072493
 20
266.798004
 30
0.0
 10
75.072260
 20
267.334057
 30
0.0
  0
LINE
  5
232
100
AcDbEntity
  8
0
 62
7
100
AcDbLine
 10
75.072260
 20
267.334057
 30
0.0
 11
75.072260
 21
267.334057
 31
0.0
  0
LINE
  5
233
100
AcDbEntity
  8
0
 62
7
100
AcDbLine
 10
256.072260
 20
379.834057
 30
0.0
 11
256.072260
 21
246.834057
 31
0.0
  0
SPLINE
  5
234
100
AcDbEntity
  8
0
 62
7
100
AcDbSpline
 70
8
 71
3
 72
8
 73
4
 74
0
 40
0
 40
0
 40
0
 40
0
 40
1
 40
1
 40
1
 40
1
 10
241.072260
 20
231.834057
 30
0.0
 10
245.050508
 20
231.834057
 30
0.0
 10
248.865816
 20
233.414410
 30
0.0
 10
251.678862
 20
236.227455
 30
0.0
  0
SPLINE
  5
235
100
AcDbEntity
  8
0
 62
7
100
AcDbSpline
 70
8
 71
3
 72
8
 73
4
 74
0
 40
0
 40
0
 40
0
 40
0
 40
1
 40
1
 40
1
 40
1
 10
251.678862
 20
236.227455
 30
0.0
 10
254.491908
 20
239.040501
 30
0.0
 10
256.072260
 20
242.855810
 30
0.0
 10
256.072260
 20
246.834057
 30
0.0
  0
LINE
  5
236
100
AcDbEntity
  8
0
 62
7
100
AcDbLine
 10
241.072260
 20
231.834057
 30
0.0
 11
81.072260
 21
231.834057
 31
0.0
  0
SPLINE
  5
237
100
AcDbEntity
  8
0
 62
7
100
AcDbSpline
 70
8
 71
3
 72
8
 73
4
 74
0
 40
0
 40
0
 40
0
 40
0
 40
1
 40
1
 40
1
 40
1
 10
66.072261
 20
246.834057
 30
0.0
 10
66.072261
 20
242.855810
 30
0.0
 10
67.652613
 20
239.040501
 30
0.0
 10
70.465659
 20
236.227455
 30
0.0
  0
SPLINE
  5
238
100
AcDbEntity
  8
0
 62
7
100
AcDbSpline
 70
8
 71
3
 72
8
 73
4
 74
0
 40
0
 40
0
 40
0
 40
0
 40
1
 40
1
 40
1
 40
1
 10
70.465659
 20
236.227455
 30
0.0
 10
73.278704
 20
233.414410
 30
0.0
 10
77.094013
 20
231.834057
 30
0.0
 10
81.072260
 20
231.834057
 30
0.0
  0
SPLINE
  5
239
100
AcDbEntity
  8
0
 62
7
100
AcDbSpline
 70
8
 71
3
 72
8
 73
4
 74
0
 40
0
 40
0
 40
0
 40
0
 40
1
 40
1
 40
1
 40
1
 10
81.072260
 20
394.834057
 30
0.0
 10
77.094013
 20
394.834057
 30
0.0
 10
73.278704
 20
393.253705
 30
0.0
 10
70.465659
 20
390.440659
 30
0.0
  0
SPLINE
  5
23a
100
AcDbEntity
  8
0
 62
7
100
AcDbSpline
 70
8
 71
3
 72
8
 73
4
 74
0
 40
0
 40
0
 40
0
 40
0
 40
1
 40
1
 40
1
 40
1
 10
70.465659
 20
390.440659
 30
0.0
 10
67.652613
 20
387.627613
 30
0.0
 10
66.072261
 20
383.812305
 30
0.0
 10
66.072261
 20
379.834057
 30
0.0
  0
SPLINE
  5
23b
100
AcDbEntity
  8
0
 62
7
100
AcDbSpline
 70
8
 71
3
 72
8
 73
4
 74
0
 40
0
 40
0
 40
0
 40
0
 40
1
 40
1
 40
1
 40
1
 10
75.072260
 20
357.334057
 30
0.0
 10
75.072493
 20
357.870110
 30
0.0
 10
74.786645
 20
358.365544
 30
0.0
 10
74.322448
 20
358.633637
 30
0.0
  0
SPLINE
  5
23c
100
AcDbEntity
  8
0
 62
7
100
AcDbSpline
 70
8
 71
3
 72
8
 73
4
 74
0
 40
0
 40
0
 40
0
 40
0
 40
1
 40
1
 40
1
 40
1
 10
74.322448
 20
358.633637
 30
0.0
 10
73.858251
 20
358.901731
 30
0.0
 10
73.286270
 20
358.901731
 30
0.0
 10
72.822072
 20
358.633637
 30
0.0
  0
SPLINE
  5
23d
100
AcDbEntity
  8
0
 62
7
100
AcDbSpline
 70
8
 71
3
 72
8
 73
4
 74
0
 40
0
 40
0
 40
0
 40
0
 40
1
 40
1
 40
1
 40
1
 10
72.822072
 20
358.633637
 30
0.0
 10
72.357875
 20
358.365544
 30
0.0
 10
72.072028
 20
357.870110
 30
0.0
 10
72.072260
 20
357.334057
 30
0.0
  0
SPLINE
  5
23e
100
AcDbEntity
  8
0
 62
7
100
AcDbSpline
 70
8
 71
3
 72
8
 73
4
 74
0
 40
0
 40
0
 40
0
 40
0
 40
1
 40
1
 40
1
 40
1
 10
72.072260
 20
357.334057
 30
0.0
 10
72.072028
 20
356.798004
 30
0.0
 10
72.357875
 20
356.302571
 30
0.0
 10
72.822072
 20
356.034477
 30
0.0
  0
SPLINE
  5
23f
100
AcDbEntity
  8
0
 62
7
100
AcDbSpline
 70
8
 71
3
 72
8
 73
4
 74
0
 40
0
 40
0
 40
0
 40
0
 40
1
 40
1
 40
1
 40
1
 10
72.822072
 20
356.034477
 30
0.0
 10
73.286270
 20
355.766383
 30
0.0
 10
73.858251
 20
355.766383
 30
0.0
 10
74.322448
 20
356.034477
 30
0.0
  0
SPLINE
  5
240
100
AcDbEntity
  8
0
 62
7
100
AcDbSpline
 70
8
 71
3
 72
8
 73
4
 74
0
 40
0
 40
0
 40
0
 40
0
 40
1
 40
1
 40
1
 40
1
 10
74.322448
 20
356.034477
 30
0.0
 10
74.786645
 20
356.302571
 30
0.0
 10
75.072493
 20
356.798004
 30
0.0
 10
75.072260
 20
357.334057
 30
0.0
  0
LINE
  5
241
100
AcDbEntity
  8
0
 62
7
100
AcDbLine
 10
75.072260
 20
357.334057
 30
0.0
 11
75.072260
 21
357.334057
 31
0.0
  0
SPLINE
  5
242
100
AcDbEntity
  8
0
 62
7
100
AcDbSpline
 70
8
 71
3
 72
8
 73
4
 74
0
 40
0
 40
0
 40
0
 40
0
 40
1
 40
1
 40
1
 40
1
 10
95.072260
 20
387.334057
 30
0.0
 10
95.072493
 20
387.870111
 30
0.0
 10
94.786645
 20
388.365544
 30
0.0
 10
94.322448
 20
388.633638
 30
0.0
  0
SPLINE
  5
243
100
AcDbEntity
  8
0
 62
7
100
AcDbSpline
 70
8
 71
3
 72
8
 73
4
 74
0
 40
0
 40
0
 40
0
 40
0
 40
1
 40
1
 40
1
 40
1
 10
94.322448
 20
388.633638
 30
0.0
 10
93.858251
 20
388.901731
 30
0.0
 10
93.286270
 20
388.901731
 30
0.0
 10
92.822073
 20
388.633638
 30
0.0
  0
SPLINE
  5
244
100
AcDbEntity
  8
0
 62
7
100
AcDbSpline
 70
8
 71
3
 72
8
 73
4
 74
0
 40
0
 40
0
 40
0
 40
0
 40
1
 40
1
 40
1
 40
1
 10
92.822073
 20
388.633638
 30
0.0
 10
92.357875
 20
388.365544
 30
0.0
 10
92.072028
 20
387.870111
 30
0.0
 10
92.072260
 20
387.334057
 30
0.0
  0
SPLINE
  5
245
100
AcDbEntity
  8
0
 62
7
100
AcDbSpline
 70
8
 71
3
 72
8
 73
4
 74
0
 40
0
 40
0
 40
0
 40
0
 40
1
 40
1
 40
1
 40
1
 10
92.072260
 20
387.334057
 30
0.0
 10
92.072028
 20
386.798004
 30
0.0
 10
92.357875
 20
386.302571
 30
0.0
 10
92.822073
 20
386.034477
 30
0.0
  0
SPLINE
  5
246
100
AcDbEntity
  8
0
 62
7
100
AcDbSpline
 70
8
 71
3
 72
8
 73
4
 74
0
 40
0
 40
0
 40
0
 40
0
 40
1
 40
1
 40
1
 40
1
 10
92.822073
 20
386.034477
 30
0.0
 10
93.286270
 20
385.766383
 30
0.0
 10
93.858251
 20
385.766383
 30
0.0
 10
94.322448
 20
386.034477
 30
0.0
  0
SPLINE
  5
247
100
AcDbEntity
  8
0
 62
7
100
AcDbSpline
 70
8
 71
3
 72
8
 73
4
 74
0
 40
0
 40
0
 40
0
 40
0
 40
1
 40
1
 40
1
 40
1
 10
94.322448
 20
386.034477
 30
0.0
 10
94.786645
 20
386.302571
 30
0.0
 10
95.072493
 20
386.798004
 30
0.0
 10
95.072260
 20
387.334057
 30
0.0
  0
LINE
  5
248
100
AcDbEntity
  8
0
 62
7
100
AcDbLine
 10
95.072260
 20
387.334057
 30
0.0
 11
95.072260
 21
387.334057
 31
0.0
  0
SPLINE
  5
249
100
AcDbEntity
  8
0
 62
7
100
AcDbSpline
 70
8
 71
3
 72
8
 73
4
 74
0
 40
0
 40
0
 40
0
 40
0
 40
1
 40
1
 40
1
 40
1
 10
250.072261
 20
267.334057
 30
0.0
 10
250.072261
 20
267.869955
 30
0.0
 10
249.786362
 20
268.365146
 30
0.0
 10
249.322261
 20
268.633095
 30
0.0
  0
SPLINE
  5
24a
100
AcDbEntity
  8
0
 62
7
100
AcDbSpline
 70
8
 71
3
 72
8
 73
4
 74
0
 40
0
 40
0
 40
0
 40
0
 40
1
 40
1
 40
1
 40
1
 10
249.322261
 20
268.633095
 30
0.0
 10
248.858159
 20
268.901045
 30
0.0
 10
248.286362
 20
268.901045
 30
0.0
 10
247.822260
 20
268.633095
 30
0.0
  0
SPLINE
  5
24b
100
AcDbEntity
  8
0
 62
7
100
AcDbSpline
 70
8
 71
3
 72
8
 73
4
 74
0
 40
0
 40
0
 40
0
 40
0
 40
1
 40
1
 40
1
 40
1
 10
247.822260
 20
268.633095
 30
0.0
 10
247.358159
 20
268.365146
 30
0.0
 10
247.072260
 20
267.869955
 30
0.0
 10
247.072260
 20
267.334057
 30
0.0
  0
SPLINE
  5
24c
100
AcDbEntity
  8
0
 62
7
100
AcDbSpline
 70
8
 71
3
 72
8
 73
4
 74
0
 40
0
 40
0
 40
0
 40
0
 40
1
 40
1
 40
1
 40
1
 10
247.072260
 20
267.334057
 30
0.0
 10
247.072260
 20
266.798159
 30
0.0
 10
247.358159
 20
266.302968
 30
0.0
 10
247.822260
 20
266.035019
 30
0.0
  0
SPLINE
  5
24d
100
AcDbEntity
  8
0
 62
7
100
AcDbSpline
 70
8
 71
3
 72
8
 73
4
 74
0
 40
0
 40
0
 40
0
 40
0
 40
1
 40
1
 40
1
 40
1
 10
247.822260
 20
266.035019
 30
0.0
 10
248.286362
 20
265.767070
 30
0.0
 10
248.858159
 20
265.767070
 30
0.0
 10
249.322261
 20
266.035019
 30
0.0
  0
SPLINE
  5
24e
100
AcDbEntity
  8
0
 62
7
100
AcDbSpline
 70
8
 71
3
 72
8
 73
4
 74
0
 40
0
 40
0
 40
0
 40
0
 40
1
 40
1
 40
1
 40
1
 10
249.322261
 20
266.035019
 30
0.0
 10
249.786362
 20
266.302968
 30
0.0
 10
250.072261
 20
266.798159
 30
0.0
 10
250.072261
 20
267.334057
 30
0.0
  0
LINE
  5
24f
100
AcDbEntity
  8
0
 62
7
100
AcDbLine
 10
250.072261
 20
267.334057
 30
0.0
 11
250.072261
 21
267.334057
 31
0.0
  0
SPLINE
  5
250
100
AcDbEntity
  8
0
 62
7
100
AcDbSpline
 70
8
 71
3
 72
8
 73
4
 74
0
 40
0
 40
0
 40
0
 40
0
 40
1
 40
1
 40
1
 40
1
 10
185.072260
 20
387.334057
 30
0.0
 10
185.072493
 20
387.870111
 30
0.0
 10
184.786645
 20
388.365544
 30
0.0
 10
184.322448
 20
388.633638
 30
0.0
  0
SPLINE
  5
251
100
AcDbEntity
  8
0
 62
7
100
AcDbSpline
 70
8
 71
3
 72
8
 73
4
 74
0
 40
0
 40
0
 40
0
 40
0
 40
1
 40
1
 40
1
 40
1
 10
184.322448
 20
388.633638
 30
0.0
 10
183.858251
 20
388.901731
 30
0.0
 10
183.286270
 20
388.901731
 30
0.0
 10
182.822073
 20
388.633638
 30
0.0
  0
SPLINE
  5
252
100
AcDbEntity
  8
0
 62
7
100
AcDbSpline
 70
8
 71
3
 72
8
 73
4
 74
0
 40
0
 40
0
 40
0
 40
0
 40
1
 40
1
 40
1
 40
1
 10
182.822073
 20
388.633638
 30
0.0
 10
182.357876
 20
388.365544
 30
0.0
 10
182.072028
 20
387.870111
 30
0.0
 10
182.072261
 20
387.334057
 30
0.0
  0
SPLINE
  5
253
100
AcDbEntity
  8
0
 62
7
100
AcDbSpline
 70
8
 71
3
 72
8
 73
4
 74
0
 40
0
 40
0
 40
0
 40
0
 40
1
 40
1
 40
1
 40
1
 10
182.072261
 20
387.334057
 30
0.0
 10
182.072028
 20
386.798004
 30
0.0
 10
182.357876
 20
386.302571
 30
0.0
 10
182.822073
 20
386.034477
 30
0.0
  0
SPLINE
  5
254
100
AcDbEntity
  8
0
 62
7
100
AcDbSpline
 70
8
 71
3
 72
8
 73
4
 74
0
 40
0
 40
0
 40
0
 40
0
 40
1
 40
1
 40
1
 40
1
 10
182.822073
 20
386.034477
 30
0.0
 10
183.286270
 20
385.766383
 30
0.0
 10
183.858251
 20
385.766383
 30
0.0
 10
184.322448
 20
386.034477
 30
0.0
  0
SPLINE
  5
255
100
AcDbEntity
  8
0
 62
7
100
AcDbSpline
 70
8
 71
3
 72
8
 73
4
 74
0
 40
0
 40
0
 40
0
 40
0
 40
1
 40
1
 40
1
 40
1
 10
184.322448
 20
386.034477
 30
0.0
 10
184.786645
 20
386.302571
 30
0.0
 10
185.072493
 20
386.798004
 30
0.0
 10
185.072260
 20
387.334057
 30
0.0
  0
LINE
  5
256
100
AcDbEntity
  8
0
 62
7
100
AcDbLine
 10
185.072260
 20
387.334057
 30
0.0
 11
185.072260
 21
387.334057
 31
0.0
  0
SPLINE
  5
257
100
AcDbEntity
  8
0
 62
7
100
AcDbSpline
 70
8
 71
3
 72
8
 73
4
 74
0
 40
0
 40
0
 40
0
 40
0
 40
1
 40
1
 40
1
 40
1
 10
250.072261
 20
357.334057
 30
0.0
 10
250.072261
 20
357.869956
 30
0.0
 10
249.786362
 20
358.365146
 30
0.0
 10
249.322261
 20
358.633095
 30
0.0
  0
SPLINE
  5
258
100
AcDbEntity
  8
0
 62
7
100
AcDbSpline
 70
8
 71
3
 72
8
 73
4
 74
0
 40
0
 40
0
 40
0
 40
0
 40
1
 40
1
 40
1
 40
1
 10
249.322261
 20
358.633095
 30
0.0
 10
248.858159
 20
358.901045
 30
0.0
 10
248.286362
 20
358.901045
 30
0.0
 10
247.822260
 20
358.633095
 30
0.0
  0
SPLINE
  5
259
100
AcDbEntity
  8
0
 62
7
100
AcDbSpline
 70
8
 71
3
 72
8
 73
4
 74
0
 40
0
 40
0
 40
0
 40
0
 40
1
 40
1
 40
1
 40
1
 10
247.822260
 20
358.633095
 30
0.0
 10
247.358159
 20
358.365146
 30
0.0
 10
247.072260
 20
357.869956
 30
0.0
 10
247.072260
 20
357.334057
 30
0.0
  0
SPLINE
  5
25a
100
AcDbEntity
  8
0
 62
7
100
AcDbSpline
 70
8
 71
3
 72
8
 73
4
 74
0
 40
0
 40
0
 40
0
 40
0
 40
1
 40
1
 40
1
 40
1
 10
247.072260
 20
357.334057
 30
0.0
 10
247.072260
 20
356.798159
 30
0.0
 10
247.358159
 20
356.302968
 30
0.0
 10
247.822260
 20
356.035019
 30
0.0
  0
SPLINE
  5
25b
100
AcDbEntity
  8
0
 62
7
100
AcDbSpline
 70
8
 71
3
 72
8
 73
4
 74
0
 40
0
 40
0
 40
0
 40
0
 40
1
 40
1
 40
1
 40
1
 10
247.822260
 20
356.035019
 30
0.0
 10
248.286362
 20
355.767070
 30
0.0
 10
248.858159
 20
355.767070
 30
0.0
 10
249.322261
 20
356.035019
 30
0.0
  0
SPLINE
  5
25c
100
AcDbEntity
  8
0
 62
7
100
AcDbSpline
 70
8
 71
3
 72
8
 73
4
 74
0
 40
0
 40
0
 40
0
 40
0
 40
1
 40
1
 40
1
 40
1
 10
249.322261
 20
356.035019
 30
0.0
 10
249.786362
 20
356.302968
 30
0.0
 10
250.072261
 20
356.798159
 30
0.0
 10
250.072261
 20
357.334057
 30
0.0
  0
LINE
  5
25d
100
AcDbEntity
  8
0
 62
7
100
AcDbLine
 10
250.072261
 20
357.334057
 30
0.0
 11
250.072261
 21
357.334057
 31
0.0
  0
SPLINE
  5
25e
100
AcDbEntity
  8
0
 62
7
100
AcDbSpline
 70
8
 71
3
 72
8
 73
4
 74
0
 40
0
 40
0
 40
0
 40
0
 40
1
 40
1
 40
1
 40
1
 10
140.072260
 20
237.334057
 30
0.0
 10
140.072493
 20
237.870111
 30
0.0
 10
139.786645
 20
238.365544
 30
0.0
 10
139.322448
 20
238.633638
 30
0.0
  0
SPLINE
  5
25f
100
AcDbEntity
  8
0
 62
7
100
AcDbSpline
 70
8
 71
3
 72
8
 73
4
 74
0
 40
0
 40
0
 40
0
 40
0
 40
1
 40
1
 40
1
 40
1
 10
139.322448
 20
238.633638
 30
0.0
 10
138.858251
 20
238.901731
 30
0.0
 10
138.286270
 20
238.901731
 30
0.0
 10
137.822073
 20
238.633638
 30
0.0
  0
SPLINE
  5
260
100
AcDbEntity
  8
0
 62
7
100
AcDbSpline
 70
8
 71
3
 72
8
 73
4
 74
0
 40
0
 40
0
 40
0
 40
0
 40
1
 40
1
 40
1
 40
1
 10
137.822073
 20
238.633638
 30
0.0
 10
137.357875
 20
238.365544
 30
0.0
 10
137.072028
 20
237.870111
 30
0.0
 10
137.072260
 20
237.334057
 30
0.0
  0
SPLINE
  5
261
100
AcDbEntity
  8
0
 62
7
100
AcDbSpline
 70
8
 71
3
 72
8
 73
4
 74
0
 40
0
 40
0
 40
0
 40
0
 40
1
 40
1
 40
1
 40
1
 10
137.072260
 20
237.334057
 30
0.0
 10
137.072028
 20
236.798004
 30
0.0
 10
137.357875
 20
236.302571
 30
0.0
 10
137.822073
 20
236.034477
 30
0.0
  0
SPLINE
  5
262
100
AcDbEntity
  8
0
 62
7
100
AcDbSpline
 70
8
 71
3
 72
8
 73
4
 74
0
 40
0
 40
0
 40
0
 40
0
 40
1
 40
1
 40
1
 40
1
 10
137.822073
 20
236.034477
 30
0.0
 10
138.286270
 20
235.766383
 30
0.0
 10
138.858251
 20
235.766383
 30
0.0
 10
139.322448
 20
236.034477
 30
0.0
  0
SPLINE
  5
263
100
AcDbEntity
  8
0
 62
7
100
AcDbSpline
 70
8
 71
3
 72
8
 73
4
 74
0
 40
0
 40
0
 40
0
 40
0
 40
1
 40
1
 40
1
 40
1
 10
139.322448
 20
236.034477
 30
0.0
 10
139.786645
 20
236.302571
 30
0.0
 10
140.072493
 20
236.798004
 30
0.0
 10
140.072260
 20
237.334057
 30
0.0
  0
LINE
  5
264
100
AcDbEntity
  8
0
 62
7
100
AcDbLine
 10
140.072260
 20
237.334057
 30
0.0
 11
140.072260
 21
237.334057
 31
0.0
  0
LINE
  5
265
100
AcDbEntity
  8
0
 62
7
100
AcDbLine
 10
66.072261
 20
246.834057
 30
0.0
 11
66.072261
 21
379.834057
 31
0.0
  0
SPLINE
  5
266
100
AcDbEntity
  8
0
 62
7
100
AcDbSpline
 70
8
 71
3
 72
8
 73
4
 74
0
 40
0
 40
0
 40
0
 40
0
 40
1
 40
1
 40
1
 40
1
 10
95.072260
 20
237.334057
 30
0.0
 10
95.072493
 20
237.870111
 30
0.0
 10
94.786645
 20
238.365544
 30
0.0
 10
94.322448
 20
238.633638
 30
0.0
  0
SPLINE
  5
267
100
AcDbEntity
  8
0
 62
7
100
AcDbSpline
 70
8
 71
3
 72
8
 73
4
 74
0
 40
0
 40
0
 40
0
 40
0
 40
1
 40
1
 40
1
 40
1
 10
94.322448
 20
238.633638
 30
0.0
 10
93.858251
 20
238.901731
 30
0.0
 10
93.286270
 20
238.901731
 30
0.0
 10
92.822073
 20
238.633638
 30
0.0
  0
SPLINE
  5
268
100
AcDbEntity
  8
0
 62
7
100
AcDbSpline
 70
8
 71
3
 72
8
 73
4
 74
0
 40
0
 40
0
 40
0
 40
0
 40
1
 40
1
 40
1
 40
1
 10
92.822073
 20
238.633638
 30
0.0
 10
92.357875
 20
238.365544
 30
0.0
 10
92.072028
 20
237.870111
 30
0.0
 10
92.072260
 20
237.334057
 30
0.0
  0
SPLINE
  5
269
100
AcDbEntity
  8
0
 62
7
100
AcDbSpline
 70
8
 71
3
 72
8
 73
4
 74
0
 40
0
 40
0
 40
0
 40
0
 40
1
 40
1
 40
1
 40
1
 10
92.072260
 20
237.334057
 30
0.0
 10
92.072028
 20
236.798004
 30
0.0
 10
92.357875
 20
236.302571
 30
0.0
 10
92.822073
 20
236.034477
 30
0.0
  0
SPLINE
  5
26a
100
AcDbEntity
  8
0
 62
7
100
AcDbSpline
 70
8
 71
3
 72
8
 73
4
 74
0
 40
0
 40
0
 40
0
 40
0
 40
1
 40
1
 40
1
 40
1
 10
92.822073
 20
236.034477
 30
0.0
 10
93.286270
 20
235.766383
 30
0.0
 10
93.858251
 20
235.766383
 30
0.0
 10
94.322448
 20
236.034477
 30
0.0
  0
SPLINE
  5
26b
100
AcDbEntity
  8
0
 62
7
100
AcDbSpline
 70
8
 71
3
 72
8
 73
4
 74
0
 40
0
 40
0
 40
0
 40
0
 40
1
 40
1
 40
1
 40
1
 10
94.322448
 20
236.034477
 30
0.0
 10
94.786645
 20
236.302571
 30
0.0
 10
95.072493
 20
236.798004
 30
0.0
 10
95.072260
 20
237.334057
 30
0.0
  0
LINE
  5
26c
100
AcDbEntity
  8
0
 62
7
100
AcDbLine
 10
95.072260
 20
237.334057
 30
0.0
 11
95.072260
 21
237.334057
 31
0.0
  0
SPLINE
  5
26d
100
AcDbEntity
  8
0
 62
7
100
AcDbSpline
 70
8
 71
3
 72
8
 73
4
 74
0
 40
0
 40
0
 40
0
 40
0
 40
1
 40
1
 40
1
 40
1
 10
256.072260
 20
379.834057
 30
0.0
 10
256.072260
 20
383.812305
 30
0.0
 10
254.491908
 20
387.627613
 30
0.0
 10
251.678862
 20
390.440659
 30
0.0
  0
SPLINE
  5
26e
100
AcDbEntity
  8
0
 62
7
100
AcDbSpline
 70
8
 71
3
 72
8
 73
4
 74
0
 40
0
 40
0
 40
0
 40
0
 40
1
 40
1
 40
1
 40
1
 10
251.678862
 20
390.440659
 30
0.0
 10
248.865816
 20
393.253705
 30
0.0
 10
245.050508
 20
394.834057
 30
0.0
 10
241.072260
 20
394.834057
 30
0.0
  0
LINE
  5
26f
100
AcDbEntity
  8
0
 62
7
100
AcDbLine
 10
81.072260
 20
394.834057
 30
0.0
 11
241.072260
 21
394.834057
 31
0.0
  0
ENDSEC
  0
SECTION
  2
OBJECTS
  0
DICTIONARY
  5
C
330
0
100
AcDbDictionary
  3
ACAD_GROUP
350
D
  3
ACAD_MLINESTYLE
350
17
  0
DICTIONARY
  5
D
330
C
100
AcDbDictionary
  0
DICTIONARY
  5
1A
330
C
100
AcDbDictionary
  0
DICTIONARY
  5
17
330
C
100
AcDbDictionary
  3
STANDARD
350
18
  0
DICTIONARY
  5
19
330
C
100
AcDbDictionary
  0
ENDSEC
  0
EOF
